<svg width="750" height="207" viewBox="0 0 750 207" fill="none" xmlns="http://www.w3.org/2000/svg">
<path d="M589.046 172.399V30.3994H677.446V57.9994H618.046V87.1994H665.446V114.799H618.046V144.799H677.446V172.399H589.046Z" fill="white"/>
<path d="M503.461 174.799C483.194 174.799 465.861 167.666 451.461 153.399C437.194 138.999 430.061 121.666 430.061 101.399C430.061 81.1324 437.194 63.8657 451.461 49.599C465.861 35.199 483.194 27.999 503.461 27.999C517.594 27.999 530.527 31.4657 542.261 38.399C553.994 45.199 562.927 54.3324 569.061 65.799L543.861 79.799C534.527 63.9324 521.061 55.999 503.461 55.999C491.194 55.999 480.727 60.4657 472.061 69.399C463.527 78.199 459.261 88.8657 459.261 101.399C459.261 113.932 463.527 124.666 472.061 133.599C480.727 142.399 491.194 146.799 503.461 146.799C521.061 146.799 534.527 138.866 543.861 122.999L569.061 136.999C562.927 148.599 554.061 157.799 542.461 164.599C530.861 171.399 517.861 174.799 503.461 174.799Z" fill="white"/>
<path d="M210.032 44.1994C219.499 53.2661 224.232 64.5994 224.232 78.1994C224.232 91.7994 219.499 103.199 210.032 112.399C200.566 121.466 188.699 125.999 174.432 125.999H156.232V172.399H127.232V30.3994H174.432C188.699 30.3994 200.566 34.9994 210.032 44.1994ZM190.032 92.9994C194.032 89.1328 196.032 84.1994 196.032 78.1994C196.032 72.1994 194.032 67.2661 190.032 63.3994C186.032 59.5328 180.699 57.5994 174.032 57.5994H156.232V98.7994H174.032C180.699 98.7994 186.032 96.8661 190.032 92.9994Z" fill="white"/>
<path d="M54.3752 174.799C43.1752 174.799 32.9752 172.599 23.7752 168.199C14.7085 163.666 7.64186 157.399 2.5752 149.399L24.7752 130.799C28.2419 135.999 32.7085 140.132 38.1752 143.199C43.7752 146.132 49.5752 147.599 55.5752 147.599C61.3085 147.599 65.9085 146.332 69.3752 143.799C72.8419 141.266 74.5752 137.932 74.5752 133.799C74.5752 129.799 73.0419 126.332 69.9752 123.399C66.9085 120.466 61.8419 117.799 54.7752 115.399L42.7752 111.199C19.4419 103.066 7.7752 89.5324 7.7752 70.599C7.7752 57.5324 12.2419 47.199 21.1752 39.599C30.1085 31.8657 41.6419 27.999 55.7752 27.999C73.9085 27.999 88.8419 34.5324 100.575 47.599L81.3752 67.399C74.5752 59.2657 66.1085 55.199 55.9752 55.199C50.7752 55.199 46.3085 56.3324 42.5752 58.599C38.8419 60.7324 36.9752 63.799 36.9752 67.799C36.9752 71.9324 38.5752 75.199 41.7752 77.599C45.1085 79.999 50.8419 82.6657 58.9752 85.599L70.3752 89.799C92.9085 98.199 104.175 112.266 104.175 131.999C104.175 144.666 99.5085 154.999 90.1752 162.999C80.9752 170.866 69.0419 174.799 54.3752 174.799Z" fill="white"/>
<path fill-rule="evenodd" clip-rule="evenodd" d="M350.59 147.62L401.517 96.8449C408.852 89.5327 412.519 85.8765 414.45 81.2271C416.382 76.5778 416.382 71.4072 416.382 61.0661V56.1257C416.382 40.2237 416.382 32.2728 411.427 27.3326C406.472 22.3926 398.497 22.3926 382.548 22.3926H377.592C367.22 22.3926 362.034 22.3926 357.371 24.3184C352.707 26.2443 349.04 29.9004 341.706 37.2128L290.778 87.9881C282.207 96.5322 276.893 101.831 274.836 106.948C274.185 108.565 273.86 110.164 273.86 111.841C273.86 118.827 279.499 124.45 290.778 135.694L292.293 137.205L310.05 119.184C312.582 116.614 316.718 116.583 319.288 119.115C321.858 121.648 321.888 125.784 319.356 128.355L301.546 146.43L302.74 147.62C314.018 158.865 319.657 164.487 326.665 164.487C328.213 164.487 329.694 164.212 331.185 163.664C336.44 161.728 341.803 156.38 350.59 147.62ZM374.515 87.9918C367.908 94.5785 357.197 94.5785 350.59 87.9918C343.984 81.405 343.984 70.7257 350.59 64.1389C357.197 57.5521 367.908 57.5521 374.515 64.1389C381.122 70.7257 381.122 81.405 374.515 87.9918Z" fill="white"/>
<path d="M303.446 56.9117L281.294 78.9969C277.222 83.0562 273.487 86.7799 270.538 90.1461C268.643 92.3074 266.751 94.674 265.147 97.288L264.931 97.0729C264.522 96.6644 264.317 96.4597 264.111 96.2602C260.261 92.5243 255.732 89.5543 250.766 87.5085C250.501 87.3992 250.232 87.2925 249.693 87.0791L246.395 85.7722C241.927 84.0017 240.736 78.2498 244.136 74.8602C253.893 65.1325 265.608 53.4528 271.262 51.1069C276.248 49.0381 281.635 48.3498 286.83 49.1175C291.589 49.8209 296.092 52.2659 303.446 56.9117Z" fill="white"/>
<path d="M341.269 173.196C343.053 175.008 344.239 176.287 345.311 177.655C346.725 179.458 347.989 181.375 349.091 183.384C350.332 185.646 351.295 188.063 353.222 192.895C354.79 196.829 360 197.869 363.026 194.852L363.758 194.122C373.515 184.394 385.23 172.714 387.582 167.078C389.658 162.106 390.348 156.736 389.578 151.557C388.872 146.811 386.421 142.323 381.762 134.993L359.537 157.152C355.372 161.304 351.555 165.111 348.102 168.092C346.032 169.88 343.768 171.666 341.269 173.196Z" fill="white"/>
</svg>
