<svg width="60" height="20" viewBox="0 0 60 20" fill="none" xmlns="http://www.w3.org/2000/svg">
<path d="M58.757 7.07603L59.4007 7.99273C58.6432 10.0808 57.5621 12.0711 54.6514 12.3548C52.8208 12.5332 51.4141 11.5615 51.241 9.78582C51.0056 7.36943 52.3788 4.96259 54.6487 4.74138C56.0582 4.60402 56.8757 5.59619 56.9738 6.60301C57.1825 8.74481 54.9263 10.055 52.868 9.79358C53.0581 10.6066 53.6774 11.0822 54.8672 10.9663C56.6612 10.7914 57.7771 9.53693 58.757 7.07603ZM54.6691 6.08842C53.6439 6.18832 52.9107 7.38705 52.8195 8.72648C54.1424 8.8378 55.5757 7.99589 55.4798 6.82252C55.4535 6.36309 55.145 6.04204 54.6691 6.08842Z" fill="black"/>
<path d="M51.9539 7.75752L52.5775 8.65769C52.0335 10.2815 50.6474 12.745 49.0365 12.902C47.2608 13.0751 46.9422 11.7016 47.6015 8.6067C48.0053 6.68241 48.7428 3.82009 49.4414 1.12788L51.0889 0.967325C50.2206 4.19351 49.518 7.03395 49.1423 8.67831C48.6666 10.8129 48.6705 11.4223 49.3112 11.3599C50.0801 11.285 51.1692 9.75589 51.9539 7.75752Z" fill="black"/>
<path d="M48.1209 7.42875L48.7334 8.40393C48.285 9.1129 47.0696 9.91509 45.778 9.74529C45.3487 11.5981 44.0666 13.4232 42.291 13.5963C41.0095 13.7211 38.9397 12.9619 39.8206 9.10619C40.3428 6.68988 40.9784 4.29948 41.5756 1.89435L43.2415 1.73201C42.7448 3.46207 42.211 5.38055 41.7344 7.12714C42.1681 6.45657 43.0004 5.89498 43.8058 5.81649C44.9591 5.7041 45.7841 6.58465 45.9179 7.95759C45.9322 8.10404 45.9482 8.2688 45.946 8.43533C46.7728 8.57651 47.665 8.24933 48.1209 7.42875ZM42.2362 12.0863C43.4078 11.9721 44.4581 9.85543 44.3029 8.26282C44.2351 7.56719 43.795 7.22201 43.3007 7.27018C42.4769 7.35046 41.6272 8.30182 41.3216 9.71758C40.9401 11.4919 41.5223 12.1558 42.2362 12.0863Z" fill="black"/>
<path d="M40.2549 8.19535L40.8674 9.17053C40.4191 9.8795 39.2036 10.6817 37.912 10.5119C37.4827 12.3647 36.2007 14.1898 34.425 14.3629C33.1436 14.4878 31.0738 13.7285 31.9546 9.87279C32.4768 7.45648 33.1124 5.06609 33.7096 2.66095L35.3755 2.49861C34.8788 4.22867 34.3451 6.14715 33.8685 7.89374C34.3021 7.22317 35.1344 6.66158 35.9399 6.58309C37.0931 6.4707 37.9181 7.35125 38.0519 8.7242C38.0662 8.87064 38.0823 9.0354 38.08 9.20193C38.9069 9.34311 39.799 9.01594 40.2549 8.19535ZM34.3702 12.8529C35.5418 12.7387 36.5922 10.622 36.437 9.02942C36.3692 8.33379 35.929 7.98861 35.4347 8.03678C34.611 8.11706 33.7612 9.06842 33.4557 10.4842C33.0742 12.2585 33.6563 12.9224 34.3702 12.8529Z" fill="black"/>
<path d="M32.3892 8.96183L33.0017 9.93701C32.5533 10.646 31.3379 11.4482 30.0463 11.2784C29.617 13.1312 28.335 14.9563 26.5593 15.1294C25.2779 15.2542 23.208 14.495 24.0889 10.6393C24.6111 8.22296 25.2467 5.83257 25.8439 3.42743L27.5098 3.26509C27.0131 4.99515 26.4793 6.91363 26.0028 8.66022C26.4364 7.98965 27.2687 7.42806 28.0741 7.34957C29.2274 7.23718 30.0524 8.11773 30.1862 9.49068C30.2005 9.63712 30.2165 9.80188 30.2143 9.96841C31.0412 10.1096 31.9333 9.78242 32.3892 8.96183ZM26.5045 13.6193C27.6761 13.5052 28.7265 11.3885 28.5712 9.7959C28.5035 9.10027 28.0633 8.75509 27.569 8.80326C26.7452 8.88354 25.8955 9.8349 25.5899 11.2507C25.2084 13.0249 25.7906 13.6889 26.5045 13.6193Z" fill="black"/>
<path d="M24.3082 10.4331L24.952 11.3498C24.1945 13.4379 23.1134 15.4282 20.2027 15.7118C18.3721 15.8902 16.9654 14.9185 16.7923 13.1429C16.5568 10.7265 17.93 8.31965 20.2 8.09844C21.6095 7.96107 22.4269 8.95324 22.525 9.96007C22.7338 12.1019 20.4775 13.412 18.4193 13.1506C18.6094 13.9637 19.2286 14.4393 20.4185 14.3233C22.2125 14.1485 23.3284 12.894 24.3082 10.4331ZM20.2204 9.44548C19.1952 9.54538 18.462 10.7441 18.3707 12.0835C19.6937 12.1949 21.127 11.3529 21.0311 10.1796C21.0048 9.72015 20.6963 9.39909 20.2204 9.44548Z" fill="black"/>
<path d="M17.6863 10.3947L18.2988 11.3699C17.8504 12.0789 16.6515 12.861 15.38 12.7077C15.0659 14.6048 13.8482 16.3312 11.9443 16.5167C10.4433 16.663 9.39905 15.619 9.25276 14.1179C9.00479 11.5734 10.4588 9.04779 12.7654 8.82301C14.3763 8.66602 15.2937 9.92565 15.4221 11.2437L15.4346 11.3718C16.2851 11.5661 17.2156 11.2537 17.6863 10.3947ZM12.0048 15.0509C13.1214 14.9421 13.9682 13.0116 13.8201 11.4922C13.7452 10.7233 13.3568 10.1514 12.6612 10.2191C11.5262 10.3298 10.6795 12.2603 10.8275 13.7796C10.915 14.6766 11.3824 15.1116 12.0048 15.0509Z" fill="black"/>
<path d="M4.31731 19.0206C2.21213 19.2258 0.578644 17.4446 0.991086 14.2813L2.67392 13.914C2.47502 15.8553 3.02714 17.5386 4.36348 17.4084C5.48014 17.2996 6.16072 15.9396 6.67617 14.0229C7.56682 10.6467 8.31994 7.37635 9.02396 3.98138L10.8546 3.80298C10.0367 7.35689 9.18441 10.7478 8.3116 14.3071C7.6608 16.9207 6.4225 18.8155 4.31731 19.0206Z" fill="black"/>
</svg>
