<svg width="794" height="206" viewBox="0 0 794 206" fill="none" xmlns="http://www.w3.org/2000/svg">
<path d="M259.857 171.152V101.628H241.378V79.6726H259.857V67.7802C259.857 56.9246 263.151 48.3865 269.737 42.1659C276.324 35.9453 284.679 32.835 294.803 32.835C301.023 32.835 306.329 33.5058 310.72 34.8475V56.9856C307.793 55.8879 304.377 55.339 300.474 55.339C294.986 55.339 291.021 56.5587 288.582 58.9982C286.142 61.3156 284.923 65.2798 284.923 70.8905V79.6726H310.72V101.628H284.923V171.152H259.857ZM325.54 171.152V33.9327H350.605V171.152H325.54Z" fill="#F7F7F7"/>
<path d="M448.976 159.443C439.584 168.591 428.241 173.165 414.945 173.165C401.65 173.165 390.307 168.591 380.915 159.443C371.523 150.173 366.827 138.829 366.827 125.412C366.827 112.117 371.523 100.835 380.915 91.5649C390.307 82.2949 401.65 77.6599 414.945 77.6599C428.241 77.6599 439.584 82.2949 448.976 91.5649C458.368 100.835 463.064 112.117 463.064 125.412C463.064 138.829 458.368 150.173 448.976 159.443ZM414.945 149.746C421.41 149.746 426.777 147.49 431.046 142.977C435.437 138.342 437.632 132.487 437.632 125.412C437.632 118.338 435.437 112.544 431.046 108.031C426.777 103.396 421.41 101.079 414.945 101.079C408.359 101.079 402.87 103.396 398.479 108.031C394.21 112.544 392.076 118.338 392.076 125.412C392.076 132.487 394.21 138.342 398.479 142.977C402.87 147.49 408.359 149.746 414.945 149.746Z" fill="#F7F7F7"/>
<path d="M556.366 171.152L539.168 119.192L522.153 171.152H497.27L466.899 79.6726H493.611L510.992 138.22L529.471 79.6726H548.682L567.344 138.22L584.542 79.6726H611.437L581.248 171.152H556.366Z" fill="#F7F7F7"/>
<path d="M692.624 173.165C681.768 173.165 673.291 169.506 667.192 162.187C661.215 154.869 658.227 145.05 658.227 132.731V79.6726H683.293V128.523C683.293 143.038 688.476 150.295 698.844 150.295C704.699 150.295 709.273 148.099 712.566 143.708C715.981 139.317 717.689 132.853 717.689 124.315V79.6726H742.754V171.152H717.689V160.724C712.078 169.018 703.723 173.165 692.624 173.165Z" fill="#F7F7F7"/>
<path d="M777.497 64.6699C773.228 64.6699 769.507 63.1452 766.336 60.0959C763.165 56.9246 761.579 53.1435 761.579 48.7524C761.579 44.3614 763.165 40.6412 766.336 37.5919C769.507 34.4206 773.228 32.835 777.497 32.835C782.01 32.835 785.791 34.4206 788.84 37.5919C792.012 40.6412 793.597 44.3614 793.597 48.7524C793.597 53.1435 792.012 56.9246 788.84 60.0959C785.791 63.1452 782.01 64.6699 777.497 64.6699ZM765.055 171.152V79.6726H790.121V171.152H765.055Z" fill="#F7F7F7"/>
<path d="M10.1275 162.496C11.8363 162.496 13.6354 161.957 15.434 160.698V64.4599C15.434 61.2222 16.0637 59.9631 18.9419 58.4338L102.318 10.4052C102.588 4.46899 98.8099 0.781494 93.6834 0.781494C91.3448 0.781494 88.8262 1.41119 86.1281 3.02989L10.7572 46.3818C1.94287 51.5083 0.86377 53.1273 0.86377 63.3808V149.455C0.86377 157.19 4.55123 162.496 10.1275 162.496ZM46.1041 183.273C47.7231 183.273 49.5218 182.733 51.4106 181.474V85.236C51.4106 81.729 51.8603 80.829 54.8283 79.2105L138.204 31.0916C138.474 25.2456 134.786 21.4679 129.57 21.4679C127.321 21.4679 124.713 22.1875 122.105 23.6265L46.5538 67.0682C37.7395 72.1049 36.7502 73.9938 36.7502 84.067V170.231C36.7502 177.966 40.6176 183.273 46.1041 183.273ZM84.5992 205.218C87.7471 205.218 91.5244 203.959 96.0216 201.441L166.536 160.967C174.811 156.2 178.049 151.253 178.049 141.18L177.869 59.6929C177.869 48.8999 174 43.4135 167.255 43.4135C164.288 43.4135 160.51 44.5831 156.283 47.0111L85.5885 87.755C77.1338 92.702 74.1658 97.738 74.1658 107.542V189.029C74.1658 199.462 77.8533 205.218 84.5992 205.218Z" fill="#F7F7F7"/>
</svg>
