<svg width="258" height="258" viewBox="0 0 258 258" fill="none" xmlns="http://www.w3.org/2000/svg">
<rect width="258" height="258" rx="50" fill="#121926"/>
<path d="M163.467 102.25C165.306 103.295 167.56 103.293 169.398 102.247L187.412 91.9949C189.369 90.881 189.64 88.2805 187.663 87.2018V87.2018L141.037 60.6151C136.936 58.3 132.968 57.0435 129 57.0435C125.032 57.0435 121.063 58.3 116.963 60.6151L112.742 63.0063C108.687 65.3032 108.684 71.1435 112.737 73.4444L163.467 102.25ZM126.04 123.483C127.876 124.526 130.124 124.527 131.961 123.486L148.066 114.359C152.114 112.065 152.124 106.236 148.084 103.929L97.5804 75.0769C95.7387 74.0248 93.4782 74.0232 91.635 75.0729L70.3366 87.2018V87.2018C68.3603 88.28 68.6326 90.8794 70.5901 91.9912L126.04 123.483ZM133.497 199.503C133.497 200.232 134.187 200.723 134.82 200.362V200.362L186.605 170.865C192.756 167.36 196.128 163.788 196.128 154.198V102.678V102.678C196.128 100.158 193.39 98.9129 191.201 100.162L136.523 131.374C134.652 132.442 133.497 134.431 133.497 136.585V199.503ZM123.18 200.362C123.813 200.723 124.503 200.232 124.503 199.503V136.585C124.503 134.431 123.348 132.442 121.477 131.374L66.7992 100.162C64.6102 98.9129 61.8711 100.157 61.8711 102.678V102.678V154.198C61.8711 163.788 65.244 167.36 71.3948 170.865L123.18 200.362V200.362Z" fill="#FDFFFF"/>
</svg>
