<svg width="119" height="20" viewBox="0 0 119 20" fill="none" xmlns="http://www.w3.org/2000/svg">
<path d="M112.46 19.5622H109.533L111.596 14.904L107.469 5.62695H110.417L113.051 11.9951L115.665 5.62695H118.633L112.46 19.5622Z" fill="white"/>
<path d="M104.113 15.5722C103.012 15.5722 102.108 15.2708 101.401 14.6681C100.706 14.0522 100.359 13.1678 100.359 12.0147V7.9855H98.3735V5.6269H100.359V2.8949H103.052V5.6269H105.823V7.9855H103.052V11.484C103.052 12.0868 103.183 12.5192 103.445 12.7812C103.707 13.0302 104.133 13.1547 104.722 13.1547C105.141 13.1547 105.508 13.0957 105.823 12.9778V15.356C105.351 15.5001 104.781 15.5722 104.113 15.5722Z" fill="white"/>
<path d="M94.4314 4.01524C93.9724 4.01524 93.5734 3.85144 93.2324 3.52394C92.8914 3.18324 92.7214 2.77704 92.7214 2.30534C92.7214 1.83364 92.8914 1.43394 93.2324 1.10634C93.5734 0.765737 93.9724 0.595337 94.4314 0.595337C94.9164 0.595337 95.3224 0.765737 95.6494 1.10634C95.9904 1.43394 96.1604 1.83364 96.1604 2.30534C96.1604 2.77704 95.9904 3.18324 95.6494 3.52394C95.3224 3.85144 94.9164 4.01524 94.4314 4.01524ZM93.0944 15.4543V5.62694H95.7874V15.4543H93.0944Z" fill="white"/>
<path d="M85.2515 15.6706C83.7705 15.6706 82.5385 15.1792 81.5565 14.1965C80.5735 13.2006 80.0815 11.982 80.0815 10.5407C80.0815 9.09927 80.5735 7.88727 81.5565 6.90457C82.5385 5.90867 83.7705 5.41077 85.2515 5.41077C86.5615 5.41077 87.6555 5.77767 88.5335 6.51147C89.4245 7.24517 90.0075 8.20177 90.2825 9.38107H87.4915C87.0595 8.35897 86.3125 7.84797 85.2515 7.84797C84.5305 7.84797 83.9405 8.09697 83.4825 8.59487C83.0235 9.07967 82.7945 9.72827 82.7945 10.5407C82.7945 11.3531 83.0235 12.0082 83.4825 12.5061C83.9405 12.991 84.5305 13.2334 85.2515 13.2334C86.3125 13.2334 87.0595 12.7224 87.4915 11.7003H90.2825C90.0075 12.8796 89.4245 13.8361 88.5335 14.5699C87.6555 15.3037 86.5615 15.6706 85.2515 15.6706Z" fill="white"/>
<path d="M76.2729 14.1965C75.264 15.1792 74.0454 15.6706 72.6171 15.6706C71.1889 15.6706 69.9703 15.1792 68.9614 14.1965C67.9524 13.2006 67.448 11.982 67.448 10.5407C67.448 9.11237 67.9524 7.90037 68.9614 6.90457C69.9703 5.90867 71.1889 5.41077 72.6171 5.41077C74.0454 5.41077 75.264 5.90867 76.2729 6.90457C77.2815 7.90037 77.7865 9.11237 77.7865 10.5407C77.7865 11.982 77.2815 13.2006 76.2729 14.1965ZM72.6171 13.1548C73.3116 13.1548 73.8881 12.9123 74.3468 12.4275C74.8185 11.9296 75.0543 11.3007 75.0543 10.5407C75.0543 9.78067 74.8185 9.15827 74.3468 8.67347C73.8881 8.17557 73.3116 7.92657 72.6171 7.92657C71.9096 7.92657 71.3199 8.17557 70.8482 8.67347C70.3896 9.15827 70.1603 9.78067 70.1603 10.5407C70.1603 11.3007 70.3896 11.9296 70.8482 12.4275C71.3199 12.9123 71.9096 13.1548 72.6171 13.1548Z" fill="white"/>
<path d="M61.8354 15.4544V0.713257H64.5281V15.4544H61.8354Z" fill="white"/>
<path d="M53.7418 15.6706C52.235 15.6706 50.9967 15.1857 50.0271 14.2161C49.0706 13.2465 48.5923 12.0148 48.5923 10.521C48.5923 9.05347 49.0771 7.83487 50.0468 6.86527C51.0295 5.89557 52.2677 5.41077 53.7615 5.41077C55.2684 5.41077 56.5197 5.92837 57.5155 6.96347C58.5114 7.98557 58.97 9.38757 58.8914 11.1696H51.226C51.2785 11.7855 51.534 12.3031 51.9926 12.7223C52.4512 13.1285 53.0801 13.3316 53.8794 13.3316C54.3642 13.3316 54.7901 13.2399 55.157 13.0565C55.537 12.8599 55.8056 12.5913 55.9628 12.2506H58.7734C58.4852 13.2596 57.8824 14.0851 56.9652 14.7271C56.048 15.3561 54.9735 15.6706 53.7418 15.6706ZM53.6829 7.59247C53.067 7.59247 52.5495 7.75627 52.1302 8.08377C51.724 8.39827 51.4554 8.83727 51.3243 9.40067H55.9432C55.799 8.78487 55.5108 8.33277 55.0784 8.04447C54.6591 7.74317 54.1939 7.59247 53.6829 7.59247Z" fill="white"/>
<path d="M40.1484 15.4543L34.3896 1.49939H37.4754L41.426 11.1892L45.3176 1.49939H48.4624L42.6839 15.4543H40.1484Z" fill="white"/>
<path d="M16.0202 9.07869C16.0202 5.24498 12.9124 2.13715 9.07869 2.13715C5.24498 2.13715 2.13715 5.24498 2.13715 9.07869C2.13715 12.9124 5.24498 16.0202 9.07869 16.0202V18.1574C4.06467 18.1574 0 14.0927 0 9.07869C0 4.06467 4.06467 0 9.07869 0C14.0927 0 18.1574 4.06467 18.1574 9.07869C18.1574 14.0927 14.0927 18.1574 9.07869 18.1574V16.0202C12.9124 16.0202 16.0202 12.9124 16.0202 9.07869Z" fill="white"/>
<path d="M25.0991 9.07869C25.0991 5.24498 21.9913 2.13715 18.1576 2.13715C14.3238 2.13715 11.216 5.24498 11.216 9.07869C11.216 12.9124 14.3238 16.0202 18.1576 16.0202V18.1574C13.1435 18.1574 9.07886 14.0927 9.07886 9.07869C9.07886 4.06467 13.1435 0 18.1576 0C23.1716 0 27.2362 4.06467 27.2362 9.07869C27.2362 14.0927 23.1716 18.1574 18.1576 18.1574V16.0202C21.9913 16.0202 25.0991 12.9124 25.0991 9.07869Z" fill="white"/>
</svg>
