<svg width="250" height="50" viewBox="0 0 250 50" fill="none" xmlns="http://www.w3.org/2000/svg">
<path d="M135.512 35.4835H132.584L134.648 30.8253L130.52 21.5483H133.468L136.102 27.9164L138.716 21.5483H141.684L135.512 35.4835Z" fill="white"/>
<path d="M127.164 31.4937C126.063 31.4937 125.159 31.1923 124.452 30.5896C123.757 29.9737 123.41 29.0893 123.41 27.9362V23.907H121.425V21.5484H123.41V18.8164H126.103V21.5484H128.874V23.907H126.103V27.4055C126.103 28.0083 126.234 28.4407 126.496 28.7027C126.758 28.9517 127.184 29.0762 127.773 29.0762C128.192 29.0762 128.559 29.0172 128.874 28.8993V31.2775C128.402 31.4216 127.832 31.4937 127.164 31.4937Z" fill="white"/>
<path d="M117.483 19.9365C117.024 19.9365 116.625 19.7727 116.284 19.4452C115.943 19.1045 115.773 18.6983 115.773 18.2266C115.773 17.7549 115.943 17.3552 116.284 17.0276C116.625 16.687 117.024 16.5166 117.483 16.5166C117.968 16.5166 118.374 16.687 118.701 17.0276C119.042 17.3552 119.212 17.7549 119.212 18.2266C119.212 18.6983 119.042 19.1045 118.701 19.4452C118.374 19.7727 117.968 19.9365 117.483 19.9365ZM116.146 31.3756V21.5482H118.839V31.3756H116.146Z" fill="white"/>
<path d="M108.303 31.5918C106.822 31.5918 105.59 31.1004 104.608 30.1177C103.625 29.1218 103.133 27.9032 103.133 26.4619C103.133 25.0205 103.625 23.8085 104.608 22.8258C105.59 21.8299 106.822 21.332 108.303 21.332C109.613 21.332 110.707 21.6989 111.585 22.4327C112.476 23.1664 113.059 24.123 113.334 25.3023H110.543C110.111 24.2802 109.364 23.7692 108.303 23.7692C107.582 23.7692 106.992 24.0182 106.534 24.5161C106.075 25.0009 105.846 25.6495 105.846 26.4619C105.846 27.2743 106.075 27.9294 106.534 28.4273C106.992 28.9122 107.582 29.1546 108.303 29.1546C109.364 29.1546 110.111 28.6436 110.543 27.6215H113.334C113.059 28.8008 112.476 29.7573 111.585 30.4911C110.707 31.2249 109.613 31.5918 108.303 31.5918Z" fill="white"/>
<path d="M99.3244 30.1177C98.3155 31.1004 97.0969 31.5918 95.6686 31.5918C94.2404 31.5918 93.0218 31.1004 92.0129 30.1177C91.0039 29.1218 90.4995 27.9032 90.4995 26.4619C90.4995 25.0336 91.0039 23.8216 92.0129 22.8258C93.0218 21.8299 94.2404 21.332 95.6686 21.332C97.0969 21.332 98.3155 21.8299 99.3244 22.8258C100.333 23.8216 100.838 25.0336 100.838 26.4619C100.838 27.9032 100.333 29.1218 99.3244 30.1177ZM95.6686 29.076C96.3631 29.076 96.9396 28.8335 97.3983 28.3487C97.87 27.8508 98.1058 27.2219 98.1058 26.4619C98.1058 25.7019 97.87 25.0795 97.3983 24.5947C96.9396 24.0968 96.3631 23.8478 95.6686 23.8478C94.9611 23.8478 94.3714 24.0968 93.8997 24.5947C93.4411 25.0795 93.2118 25.7019 93.2118 26.4619C93.2118 27.2219 93.4411 27.8508 93.8997 28.3487C94.3714 28.8335 94.9611 29.076 95.6686 29.076Z" fill="white"/>
<path d="M84.887 31.3754V16.6343H87.5797V31.3754H84.887Z" fill="white"/>
<path d="M76.7932 31.5918C75.2864 31.5918 74.0481 31.1069 73.0785 30.1373C72.122 29.1677 71.6437 27.936 71.6437 26.4422C71.6437 24.9747 72.1285 23.7561 73.0982 22.7865C74.0809 21.8168 75.3191 21.332 76.8129 21.332C78.3198 21.332 79.5711 21.8496 80.5669 22.8847C81.5628 23.9068 82.0214 25.3088 81.9428 27.0908H74.2774C74.3299 27.7067 74.5854 28.2243 75.044 28.6435C75.5026 29.0497 76.1315 29.2528 76.9308 29.2528C77.4156 29.2528 77.8415 29.1611 78.2084 28.9777C78.5884 28.7811 78.857 28.5125 79.0142 28.1718H81.8248C81.5366 29.1808 80.9338 30.0063 80.0166 30.6483C79.0994 31.2773 78.0249 31.5918 76.7932 31.5918ZM76.7343 23.5137C76.1184 23.5137 75.6009 23.6775 75.1816 24.005C74.7754 24.3195 74.5068 24.7585 74.3757 25.3219H78.9946C78.8504 24.7061 78.5622 24.254 78.1298 23.9657C77.7105 23.6644 77.2453 23.5137 76.7343 23.5137Z" fill="white"/>
<path d="M63.2 31.3758L57.4412 17.4209H60.527L64.4776 27.1107L68.3692 17.4209H71.514L65.7355 31.3758H63.2Z" fill="white"/>
<path d="M29.4222 25.0001C29.4222 21.1664 26.3144 18.0585 22.4807 18.0585C18.647 18.0585 15.5391 21.1664 15.5391 25.0001C15.5391 28.8338 18.647 31.9416 22.4807 31.9416V34.0788C17.4666 34.0788 13.402 30.0141 13.402 25.0001C13.402 19.9861 17.4666 15.9214 22.4807 15.9214C27.4947 15.9214 31.5594 19.9861 31.5594 25.0001C31.5594 30.0141 27.4947 34.0788 22.4807 34.0788V31.9416C26.3144 31.9416 29.4222 28.8338 29.4222 25.0001Z" fill="white"/>
<path d="M38.501 25.0001C38.501 21.1664 35.3931 18.0585 31.5594 18.0585C27.7257 18.0585 24.6179 21.1664 24.6179 25.0001C24.6179 28.8338 27.7257 31.9416 31.5594 31.9416V34.0788C26.5454 34.0788 22.4807 30.0141 22.4807 25.0001C22.4807 19.9861 26.5454 15.9214 31.5594 15.9214C36.5734 15.9214 40.6381 19.9861 40.6381 25.0001C40.6381 30.0141 36.5734 34.0788 31.5594 34.0788V31.9416C35.3931 31.9416 38.501 28.8338 38.501 25.0001Z" fill="white"/>
</svg>
