<svg width="330" height="80" viewBox="0 0 330 80" fill="none" xmlns="http://www.w3.org/2000/svg">
<path fill-rule="evenodd" clip-rule="evenodd" d="M31.4052 78.9921L0.908044 61.4448L1.04394 15.6829L48.0261 0.887475L78.5233 18.4347L78.3874 64.1967L31.4052 78.9921ZM32.2191 32.0022L43.6243 28.41L43.6778 10.3811L11.9868 20.3635L32.2191 32.0022ZM51.3803 25.9673L67.3382 20.9412L51.4225 11.7818L51.3803 25.9673ZM8.67913 53.9211L30.0083 47.2041L30.0438 35.2237L8.771 22.9838L8.67913 53.9211ZM70.667 54.6647L70.7583 23.9258L51.3683 30.0319L51.3282 43.5375L70.667 54.6647ZM33.8862 45.983L43.5811 42.9299L43.6122 32.4744L33.9173 35.5276L33.8862 45.983ZM33.8145 70.1146L64.9437 60.3112L46.989 49.9805L33.8621 54.1144L33.8145 70.1146ZM29.9429 69.2123L29.9841 55.3357L14.374 60.2515L29.9429 69.2123Z" fill="url(#paint0_linear_1_7)"/>
<path d="M102.279 58.4398V22.9398H108.129V37.6398H125.679V22.9398H131.529V58.4398H125.679V43.1898H108.129V58.4398H102.279ZM159.729 55.1898C157.229 57.6898 154.129 58.9398 150.429 58.9398C146.729 58.9398 143.612 57.6898 141.079 55.1898C138.579 52.6564 137.329 49.5731 137.329 45.9398C137.329 42.3064 138.579 39.2398 141.079 36.7398C143.612 34.2064 146.729 32.9398 150.429 32.9398C154.129 32.9398 157.229 34.2064 159.729 36.7398C162.262 39.2398 163.529 42.3064 163.529 45.9398C163.529 49.5731 162.262 52.6564 159.729 55.1898ZM150.429 53.8398C152.596 53.8398 154.379 53.0898 155.779 51.5898C157.212 50.0564 157.929 48.1731 157.929 45.9398C157.929 43.7064 157.212 41.8398 155.779 40.3398C154.379 38.8064 152.596 38.0398 150.429 38.0398C148.229 38.0398 146.412 38.8064 144.979 40.3398C143.579 41.8398 142.879 43.7064 142.879 45.9398C142.879 48.1731 143.579 50.0564 144.979 51.5898C146.412 53.0898 148.229 53.8398 150.429 53.8398ZM169.061 58.4398V20.9398H174.561V58.4398H169.061ZM202.551 55.1898C200.051 57.6898 196.951 58.9398 193.251 58.9398C189.551 58.9398 186.435 57.6898 183.901 55.1898C181.401 52.6564 180.151 49.5731 180.151 45.9398C180.151 42.3064 181.401 39.2398 183.901 36.7398C186.435 34.2064 189.551 32.9398 193.251 32.9398C196.951 32.9398 200.051 34.2064 202.551 36.7398C205.085 39.2398 206.351 42.3064 206.351 45.9398C206.351 49.5731 205.085 52.6564 202.551 55.1898ZM193.251 53.8398C195.418 53.8398 197.201 53.0898 198.601 51.5898C200.035 50.0564 200.751 48.1731 200.751 45.9398C200.751 43.7064 200.035 41.8398 198.601 40.3398C197.201 38.8064 195.418 38.0398 193.251 38.0398C191.051 38.0398 189.235 38.8064 187.801 40.3398C186.401 41.8398 185.701 43.7064 185.701 45.9398C185.701 48.1731 186.401 50.0564 187.801 51.5898C189.235 53.0898 191.051 53.8398 193.251 53.8398ZM223.183 69.3898C219.783 69.3898 216.983 68.5564 214.783 66.8898C212.616 65.2231 211.366 63.0564 211.033 60.3898H216.433C217.4 63.2564 219.7 64.6898 223.333 64.6898C225.3 64.6898 226.916 64.0398 228.183 62.7398C229.483 61.4731 230.133 59.6731 230.133 57.3398V54.3898C229.333 55.5231 228.216 56.4564 226.783 57.1898C225.35 57.9231 223.8 58.2898 222.133 58.2898C218.766 58.2898 215.916 57.0731 213.583 54.6398C211.283 52.1731 210.133 49.1564 210.133 45.5898C210.133 42.0564 211.283 39.0731 213.583 36.6398C215.916 34.1731 218.766 32.9398 222.133 32.9398C223.8 32.9398 225.35 33.3064 226.783 34.0398C228.216 34.7398 229.333 35.6564 230.133 36.7898V33.4398H235.633V56.8898C235.633 61.0231 234.45 64.1398 232.083 66.2398C229.75 68.3398 226.783 69.3898 223.183 69.3898ZM217.833 51.0898C219.266 52.5231 221.033 53.2398 223.133 53.2398C225.233 53.2398 227 52.5231 228.433 51.0898C229.866 49.6231 230.583 47.7898 230.583 45.5898C230.583 43.3898 229.866 41.5731 228.433 40.1398C227 38.6731 225.233 37.9398 223.133 37.9398C221.033 37.9398 219.266 38.6731 217.833 40.1398C216.4 41.5731 215.683 43.3898 215.683 45.5898C215.683 47.7898 216.4 49.6231 217.833 51.0898ZM243.035 58.4398V33.4398H248.535V37.8898C249.002 36.4898 249.852 35.3564 251.085 34.4898C252.352 33.6231 253.702 33.1898 255.135 33.1898C256.002 33.1898 256.719 33.2564 257.285 33.3898V39.0398C256.485 38.7398 255.569 38.5898 254.535 38.5898C252.869 38.5898 251.452 39.2731 250.285 40.6398C249.119 41.9731 248.535 43.8398 248.535 46.2398V58.4398H243.035ZM271.449 58.9398C268.049 58.9398 265.183 57.6731 262.849 55.1398C260.549 52.6064 259.399 49.5398 259.399 45.9398C259.399 42.3398 260.549 39.2731 262.849 36.7398C265.183 34.2064 268.049 32.9398 271.449 32.9398C273.149 32.9398 274.716 33.3231 276.149 34.0898C277.583 34.8231 278.683 35.7231 279.449 36.7898V33.4398H284.949V58.4398H279.449V55.0898C278.683 56.1564 277.583 57.0731 276.149 57.8398C274.716 58.5731 273.149 58.9398 271.449 58.9398ZM267.099 51.6398C268.499 53.1731 270.283 53.9398 272.449 53.9398C274.616 53.9398 276.399 53.1731 277.799 51.6398C279.199 50.1064 279.899 48.2064 279.899 45.9398C279.899 43.6731 279.199 41.7731 277.799 40.2398C276.399 38.7064 274.616 37.9398 272.449 37.9398C270.283 37.9398 268.499 38.7064 267.099 40.2398C265.699 41.7731 264.999 43.6731 264.999 45.9398C264.999 48.2064 265.699 50.1064 267.099 51.6398ZM324.25 58.4398V44.3898C324.25 42.3564 323.867 40.7731 323.1 39.6398C322.367 38.5064 321.267 37.9398 319.8 37.9398C318.034 37.9398 316.617 38.6231 315.55 39.9898C314.484 41.3564 313.917 43.2731 313.85 45.7398V58.4398H308.35V44.3898C308.35 42.3564 307.967 40.7731 307.2 39.6398C306.467 38.5064 305.367 37.9398 303.9 37.9398C302.067 37.9398 300.6 38.6564 299.5 40.0898C298.434 41.5231 297.9 43.5398 297.9 46.1398V58.4398H292.4V33.4398H297.9V36.8398C299.434 34.2398 301.8 32.9398 305 32.9398C308.767 32.9398 311.35 34.5898 312.75 37.8898C313.45 36.3231 314.517 35.1064 315.95 34.2398C317.417 33.3731 319.017 32.9398 320.75 32.9398C323.55 32.9398 325.75 33.8898 327.35 35.7898C328.95 37.6898 329.75 40.2564 329.75 43.4898V58.4398H324.25Z" fill="white"/>
<defs>
<linearGradient id="paint0_linear_1_7" x1="39.5996" y1="79.0164" x2="39.8317" y2="0.863142" gradientUnits="userSpaceOnUse">
<stop stop-color="#6A4EA7"/>
<stop offset="0.516473" stop-color="#1E64DD"/>
<stop offset="1" stop-color="#508DA9"/>
</linearGradient>
</defs>
</svg>
