<svg width="814" height="898" viewBox="0 0 814 898" fill="none" xmlns="http://www.w3.org/2000/svg">
<path d="M745.913 174.903L474.197 18.0266C432.564 -6.00838 380.84 -6.00937 339.209 18.0266L67.493 174.902C25.862 198.938 0 243.732 0 291.804V605.555C0 653.627 25.862 698.42 67.493 722.456L339.209 879.332C360.024 891.351 383.364 897.359 406.703 897.359C430.042 897.359 453.381 891.351 474.197 879.332L745.913 722.456C787.544 698.42 813.406 653.626 813.406 605.555V291.804C813.406 243.732 787.544 198.939 745.913 174.903ZM745.473 605.556C745.473 629.435 732.626 651.686 711.947 663.626L440.231 820.502C419.55 832.441 393.857 832.441 373.176 820.502L101.46 663.626C80.781 651.686 67.934 629.435 67.934 605.556V291.805C67.934 267.925 80.781 245.674 101.46 233.734L373.176 76.8585C383.517 70.8875 395.108 67.9036 406.703 67.9036C418.298 67.9036 429.891 70.8895 440.23 76.8585L711.946 233.735C732.625 245.674 745.472 267.925 745.472 291.805V605.556H745.473Z" fill="#FBFBFB"/>
<path d="M689.119 310.623L447.833 449.93C435.835 456.857 428.443 469.659 428.443 483.514V758.635C428.443 773.759 444.813 783.214 457.914 775.656L691.611 640.82C706.437 632.26 715.647 616.308 715.647 599.188C715.647 599.188 715.621 402.947 715.586 325.892C715.58 312.312 700.879 303.834 689.118 310.624L689.119 310.623Z" fill="#FBFBFB"/>
</svg>
