<svg width="48" height="48" viewBox="0 0 48 48" fill="none" xmlns="http://www.w3.org/2000/svg">
<rect width="48" height="48" rx="17" fill="url(#paint0_linear_68_11)"/>
<path d="M31.0674 11.8938C31.4169 11.248 32.0921 10.8457 32.8264 10.8457H34.5867C35.6913 10.8457 36.5867 11.7411 36.5867 12.8457V35.1536C36.5867 36.2582 35.6913 37.1537 34.5867 37.1537H20.7538C19.2386 37.1537 18.2737 35.5343 18.9948 34.2017L31.0674 11.8938Z" fill="white"/>
<path d="M15.0537 35.9307C14.7131 36.56 14.0551 36.9521 13.3395 36.9521C12.263 36.9521 11.3904 36.0795 11.3904 35.003L11.3904 22.4274C11.3904 21.3228 12.2858 20.4274 13.3904 20.4274L20.0873 20.4274C21.6025 20.4274 22.5674 22.0467 21.8463 23.3793L15.0537 35.9307Z" fill="white"/>
<rect x="11.3904" y="10.8457" width="12.0534" height="7.85456" rx="3.92728" fill="white"/>
<defs>
<linearGradient id="paint0_linear_68_11" x1="0" y1="24" x2="48" y2="24" gradientUnits="userSpaceOnUse">
<stop stop-color="#5C48CF"/>
<stop offset="1" stop-color="#485ACF"/>
</linearGradient>
</defs>
</svg>
