<svg width="256" height="238" viewBox="0 0 256 238" fill="none" xmlns="http://www.w3.org/2000/svg">
<path d="M122.7 109.9L122.8 79.8C131.3 79.8 158 77.2 158 95C157.9 112 131.2 109.9 122.7 109.9ZM164.8 141.8C164.9 122.3 132.8 125.1 122.6 125.1L122.5 158.3C132.7 158.3 164.8 160.5 164.8 141.8ZM10.6 119.9C10.6 54.9 62.8 2 127.8 2C192.8 2 245.3 54.5 245.3 119.5C245.3 184.5 192.4 237 127.8 237C63.2 237 10.6 184.6 10.6 119.9ZM98.1 113.5C97.6 113.5 97.1 113.5 96.5 113.5L96.3 153C96 154.9 94.9 158 90.6 158C90.8 158.2 79.6 158 79.6 158L76.5 176L96.1 176.1C99.8 176.1 103.3 176.2 106.9 176.2L106.8 201.2L121.9 201.3L122 176.5C126.1 176.6 130.1 176.6 134 176.7L133.9 201.4L149 201.5L149.1 176.5C174.4 175.1 192.2 168.8 194.5 145C196.3 125.8 187.4 117.3 173 113.8C181.8 109.4 187.2 101.6 186 88.5C184.3 70.6 169 64.6 149.5 62.8L149.6 38L134.5 37.9V62C130.5 62 126.5 62.1 122.5 62.1L122.6 37.8L107.5 37.7L107.4 62.5C104.1 62.6 100.9 62.6 97.8 62.6V62.5L77 62.4V78.5C77 78.5 88.1 78.3 87.9 78.5C94 78.5 96 82.1 96.5 85.1L96.4 113.3C96.9 113.4 97.5 113.4 98.1 113.5Z" fill="white"/>
</svg>
