<svg width="175" height="44" viewBox="0 0 175 44" fill="none" xmlns="http://www.w3.org/2000/svg">
<rect y="5.31738" width="27.5162" height="33.3647" rx="10" fill="white"/>
<rect width="11.7927" height="33.3647" rx="5.89634" transform="matrix(-1 0 0 1 39.3089 5.31738)" fill="white" fill-opacity="0.5"/>
<path d="M158.818 11.1963H164.313V32.8039H158.818V24.5004H152.737V32.8039H147.212V11.1963H152.737V19.1911H158.818V11.1963Z" fill="white"/>
<path d="M133.103 33.2661C129.851 33.2661 127.156 32.196 125.015 30.0558C122.896 27.895 121.836 25.2095 121.836 21.9992C121.836 18.789 122.896 16.1137 125.015 13.9736C127.156 11.8128 129.851 10.7324 133.103 10.7324C135.058 10.7324 136.869 11.1954 138.536 12.1215C140.202 13.0475 141.509 14.2925 142.456 15.8565L137.671 18.6038C137.26 17.8424 136.642 17.2456 135.819 16.8134C135.017 16.3607 134.111 16.1343 133.103 16.1343C131.374 16.1343 129.975 16.6797 128.905 17.7703C127.855 18.8404 127.33 20.2501 127.33 21.9992C127.33 23.7484 127.855 25.1684 128.905 26.259C129.975 27.3291 131.374 27.8642 133.103 27.8642C134.111 27.8642 135.017 27.6481 135.819 27.2159C136.642 26.7632 137.26 26.1459 137.671 25.3639L142.456 28.142C141.509 29.7265 140.202 30.9818 138.536 31.9079C136.889 32.8133 135.078 33.2661 133.103 33.2661Z" fill="white"/>
<path d="M110.976 11.1963H116.471V32.8039H112.211L104.587 21.9384V32.8039H99.0613V11.1963H103.352L110.976 22.0618V11.1963Z" fill="white"/>
<path d="M90.6841 31.1988C89.0995 32.5775 87.0519 33.2669 84.5413 33.2669C82.0307 33.2669 79.9728 32.5775 78.3677 31.1988C76.7832 29.82 75.9909 27.9885 75.9909 25.7043V11.1963H81.5162V25.1795C81.5162 26.9904 82.5246 27.8959 84.5413 27.8959C86.558 27.8959 87.5664 26.9904 87.5664 25.1795V11.1963H93.0918V25.7043C93.0918 27.9885 92.2892 29.82 90.6841 31.1988Z" fill="white"/>
<path d="M63.4066 11.1963C65.5879 11.1963 67.4194 11.9063 68.9011 13.3262C70.3828 14.7461 71.1236 16.557 71.1236 18.759C71.1236 20.9609 70.3828 22.7718 68.9011 24.1917C67.4194 25.6117 65.5879 26.3216 63.4066 26.3216H60.5359V32.8039H55.0105V11.1963H63.4066ZM63.4066 21.0741C64.024 21.0741 64.5384 20.858 64.95 20.4258C65.3822 19.9937 65.5982 19.4381 65.5982 18.759C65.5982 18.0799 65.3822 17.5345 64.95 17.1229C64.5384 16.6908 64.024 16.4747 63.4066 16.4747H60.5359V21.0741H63.4066Z" fill="white"/>
</svg>
