<svg id="visual" viewBox="0 0 900 600" width="900" height="600" xmlns="http://www.w3.org/2000/svg" xmlns:xlink="http://www.w3.org/1999/xlink" version="1.1"><path d="M0 79L82 79L82 97L164 97L164 67L245 67L245 103L327 103L327 67L409 67L409 127L491 127L491 61L573 61L573 91L655 91L655 43L736 43L736 109L818 109L818 109L900 109L900 97L900 0L900 0L818 0L818 0L736 0L736 0L655 0L655 0L573 0L573 0L491 0L491 0L409 0L409 0L327 0L327 0L245 0L245 0L164 0L164 0L82 0L82 0L0 0Z" fill="#fa7268"></path><path d="M0 163L82 163L82 151L164 151L164 163L245 163L245 157L327 157L327 145L409 145L409 175L491 175L491 157L573 157L573 175L655 175L655 85L736 85L736 187L818 187L818 145L900 145L900 157L900 95L900 107L818 107L818 107L736 107L736 41L655 41L655 89L573 89L573 59L491 59L491 125L409 125L409 65L327 65L327 101L245 101L245 65L164 65L164 95L82 95L82 77L0 77Z" fill="#ea5e66"></path><path d="M0 265L82 265L82 295L164 295L164 253L245 253L245 247L327 247L327 199L409 199L409 253L491 253L491 313L573 313L573 271L655 271L655 157L736 157L736 307L818 307L818 199L900 199L900 211L900 155L900 143L818 143L818 185L736 185L736 83L655 83L655 173L573 173L573 155L491 155L491 173L409 173L409 143L327 143L327 155L245 155L245 161L164 161L164 149L82 149L82 161L0 161Z" fill="#d84a64"></path><path d="M0 487L82 487L82 451L164 451L164 367L245 367L245 493L327 493L327 403L409 403L409 373L491 373L491 493L573 493L573 391L655 391L655 349L736 349L736 469L818 469L818 313L900 313L900 361L900 209L900 197L818 197L818 305L736 305L736 155L655 155L655 269L573 269L573 311L491 311L491 251L409 251L409 197L327 197L327 245L245 245L245 251L164 251L164 293L82 293L82 263L0 263Z" fill="#c53762"></path><path d="M0 601L82 601L82 601L164 601L164 601L245 601L245 601L327 601L327 601L409 601L409 601L491 601L491 601L573 601L573 601L655 601L655 601L736 601L736 601L818 601L818 601L900 601L900 601L900 359L900 311L818 311L818 467L736 467L736 347L655 347L655 389L573 389L573 491L491 491L491 371L409 371L409 401L327 401L327 491L245 491L245 365L164 365L164 449L82 449L82 485L0 485Z" fill="#b0235f"></path></svg>