<svg width="2601" height="567" viewBox="0 0 2601 567" fill="none" xmlns="http://www.w3.org/2000/svg">
<g clip-path="url(#clip0_449_5)">
<path d="M525.091 372.271C406.2 448.917 209.672 365.385 236.195 245.518C259.448 140.431 384.283 170.633 412.677 184.815C441.071 198.996 423.887 123.671 358.042 101.063C268.85 70.4358 159.675 76.929 125.165 230.771C101.582 335.905 147.773 483.301 325.136 485.267C502.498 487.232 525.091 372.271 525.091 372.271Z" fill="#226699"/>
<path d="M565.812 396.09C565.812 362.35 522.513 359.394 502.923 378.497C455.85 424.39 386.547 441.574 293.849 423.478C132.696 392.034 131.265 203.147 241.446 149.267C301.049 120.118 371.768 154.628 398.653 175.287C422.048 193.258 466.793 217.108 464.45 187.11C459.451 123.247 334.286 -13.521 166.577 72.9512C-1.11608 159.423 0.00019269 354.583 0.00019269 389.958V503.944C0.00019269 538.675 28.5203 566 63.2507 566H503.473C538.203 566 566 538.675 566 503.944C566 503.944 565.937 396.184 565.812 396.09Z" fill="#55ACEE"/>
</g>
<path d="M2518.05 191.227C2521.64 191.227 2524.55 194.137 2524.55 197.727V449.671C2524.55 453.261 2521.64 456.171 2518.05 456.171H2471.98C2468.39 456.171 2465.48 453.261 2465.48 449.671V197.727C2465.48 194.137 2468.39 191.227 2471.98 191.227H2518.05ZM2495.01 56.0884C2506.05 56.0884 2515.33 60.0109 2522.82 67.8481H2522.82C2530.3 75.3334 2534.05 84.4357 2534.05 95.1245C2534.05 106.16 2530.31 115.611 2522.82 123.448L2522.82 123.456C2515.33 130.944 2506.05 134.688 2495.01 134.688C2484.32 134.688 2475.05 130.941 2467.22 123.463L2467.21 123.456C2459.37 115.62 2455.45 106.167 2455.45 95.1245C2455.45 84.4318 2459.38 75.3299 2467.21 67.8481C2475.04 60.0159 2484.32 56.0884 2495.01 56.0884Z" fill="#143045" stroke="black"/>
<path d="M2244.78 185.949C2262.8 185.949 2279.42 190.013 2294.63 198.146L2296.23 198.976C2304.14 203.158 2311.07 207.838 2317.01 213.021C2319.04 214.789 2321.97 215.02 2324.43 214.088C2326.89 213.156 2328.74 211.118 2328.74 208.469V197.729C2328.74 194.139 2331.65 191.229 2335.24 191.229H2381.31C2384.9 191.229 2387.81 194.139 2387.81 197.729V449.672C2387.81 453.262 2384.9 456.172 2381.31 456.172H2335.24C2331.65 456.172 2328.74 453.262 2328.74 449.672V438.932C2328.74 436.282 2326.89 434.248 2324.45 433.325C2322 432.401 2319.08 432.644 2317.07 434.429C2310.72 440.061 2303.24 445.177 2294.64 449.778L2294.63 449.782C2279.42 457.563 2262.8 461.45 2244.78 461.45C2208.74 461.45 2178.35 448.017 2153.62 421.17L2153.61 421.167C2129.24 394.324 2117.06 361.825 2117.06 323.7C2117.06 285.575 2129.24 253.076 2153.61 226.232L2153.62 226.229C2178.35 199.382 2208.74 185.949 2244.78 185.949ZM2255.34 239.738C2232.6 239.738 2213.91 247.778 2199.22 263.857C2184.54 279.945 2177.18 299.882 2177.18 323.7C2177.18 347.519 2184.54 367.454 2199.22 383.542C2213.91 399.622 2232.6 407.662 2255.34 407.662C2278.08 407.662 2296.77 399.622 2311.45 383.542C2326.14 367.454 2333.49 347.519 2333.49 323.7C2333.49 299.882 2326.14 279.945 2311.45 263.857C2296.77 247.778 2278.08 239.738 2255.34 239.738Z" fill="#143045" stroke="black"/>
<path d="M2030.57 367.542C2043.37 367.542 2054.23 372.17 2063.12 381.413C2072.36 390.652 2077 401.511 2077 413.968C2077 426.773 2072.37 437.809 2063.13 447.051C2054.23 455.945 2043.37 460.395 2030.57 460.395C2018.12 460.395 2007.26 455.942 1998.02 447.058L1998.01 447.044C1989.12 437.801 1984.67 426.767 1984.67 413.968C1984.67 401.517 1989.13 390.661 1998.01 381.421L1998.02 381.413C2007.26 372.175 2018.11 367.542 2030.57 367.542Z" fill="#143045" stroke="black"/>
<path d="M1754.36 191.228C1756.96 191.228 1759.3 192.769 1760.33 195.149L1834.04 365.7C1835.95 370.118 1842.21 370.126 1844.13 365.712L1918.34 195.135C1919.37 192.763 1921.71 191.228 1924.3 191.228H1975.47C1980.19 191.228 1983.34 196.106 1981.39 200.409L1817.37 562.681C1816.32 565.006 1814 566.5 1811.45 566.5H1760.75C1756.03 566.5 1752.88 561.619 1754.83 557.316L1806.35 443.693C1807 442.248 1807 440.59 1806.34 439.146L1697.83 200.417C1695.88 196.114 1699.02 191.228 1703.75 191.228H1754.36Z" fill="#143045" stroke="black"/>
<path d="M1460.52 191.228C1463.11 191.228 1465.46 192.767 1466.49 195.145L1539.67 364.145C1541.58 368.558 1547.84 368.566 1549.76 364.157L1623.44 195.13C1624.47 192.76 1626.81 191.228 1629.4 191.228H1681.08C1685.81 191.228 1688.96 196.112 1687 200.416L1572.62 452.359C1571.57 454.681 1569.25 456.171 1566.7 456.171H1523.23C1520.68 456.171 1518.36 454.676 1517.31 452.349L1403.43 200.405C1401.49 196.103 1404.64 191.228 1409.36 191.228H1460.52Z" fill="#143045" stroke="black"/>
<path d="M1215.81 185.949C1233.84 185.949 1250.46 190.013 1265.66 198.146L1267.26 198.976C1275.17 203.158 1282.1 207.838 1288.04 213.021C1290.07 214.789 1293 215.02 1295.46 214.088C1297.92 213.156 1299.78 211.118 1299.78 208.469V197.729C1299.78 194.139 1302.69 191.229 1306.28 191.229H1352.34C1355.93 191.229 1358.84 194.139 1358.84 197.729V449.672C1358.84 453.262 1355.93 456.172 1352.34 456.172H1306.28C1302.69 456.172 1299.78 453.262 1299.78 449.672V438.932C1299.78 436.282 1297.93 434.248 1295.48 433.325C1293.03 432.401 1290.11 432.644 1288.1 434.429C1281.75 440.061 1274.27 445.177 1265.67 449.778L1265.66 449.782C1250.46 457.563 1233.84 461.45 1215.81 461.45C1179.78 461.45 1149.38 448.017 1124.65 421.17L1124.65 421.167C1100.28 394.324 1088.09 361.825 1088.09 323.7C1088.09 285.575 1100.28 253.076 1124.65 226.232L1124.65 226.229C1149.38 199.382 1179.78 185.949 1215.81 185.949ZM1226.37 239.738C1203.63 239.738 1184.94 247.778 1170.26 263.857C1155.57 279.945 1148.22 299.882 1148.22 323.7C1148.22 347.519 1155.57 367.454 1170.26 383.542C1184.94 399.622 1203.63 407.662 1226.37 407.662C1249.11 407.662 1267.81 399.622 1282.49 383.542C1297.18 367.454 1304.53 347.519 1304.53 323.7C1304.53 299.882 1297.18 279.945 1282.49 263.857C1267.81 247.778 1249.11 239.738 1226.37 239.738Z" fill="#143045" stroke="black"/>
<path d="M720.277 191.228C723.119 191.228 725.631 193.075 726.48 195.787L776.627 355.981C778.222 361.074 785.407 361.14 787.094 356.077L840.563 195.672C841.448 193.018 843.931 191.228 846.729 191.228H882.399C885.209 191.228 887.701 193.034 888.576 195.705L941.094 356.05C942.755 361.122 949.94 361.094 951.561 356.009L1002.66 195.753C1003.52 193.058 1006.02 191.228 1008.85 191.228H1057.88C1062.33 191.228 1065.46 195.587 1064.04 199.798L979.391 451.742C978.502 454.388 976.022 456.171 973.23 456.171H926.938C924.156 456.171 921.683 454.401 920.786 451.767L869.808 302.079C868.113 297.102 861.071 297.112 859.39 302.093L808.887 451.75C807.995 454.392 805.517 456.171 802.728 456.171H756.45C753.658 456.171 751.177 454.388 750.288 451.742L665.635 199.798C664.22 195.587 667.353 191.228 671.796 191.228H720.277Z" fill="#143045" stroke="black"/>
<defs>
<clipPath id="clip0_449_5">
<rect width="566" height="566" fill="white"/>
</clipPath>
</defs>
</svg>
