<svg width="584" height="584" viewBox="0 0 584 584" fill="none" xmlns="http://www.w3.org/2000/svg">
<path d="M26.2309 502.967C31.4616 534.567 58.9166 558.667 91.9999 558.667H492C528.82 558.667 558.667 528.82 558.667 492V365.003M26.2309 502.967C25.6406 499.4 25.3333 495.737 25.3333 492V91.9999C25.3333 55.1809 55.1809 25.3333 91.9999 25.3333H492C528.82 25.3333 558.667 55.1809 558.667 91.9999V365.003M26.2309 502.967L153.587 375.61C176.255 355.777 209.406 353.607 234.467 370.313L251.44 381.627C275.593 397.73 307.397 396.35 330.067 378.217L418.337 307.597C440.837 289.597 472.177 288.187 496.093 303.613C498.743 305.323 501.103 307.44 503.333 309.673L558.667 365.003M258.667 192C258.667 228.82 228.82 258.667 192 258.667C155.181 258.667 125.333 228.82 125.333 192C125.333 155.181 155.181 125.333 192 125.333C228.82 125.333 258.667 155.181 258.667 192Z" stroke="#ACACAC" stroke-width="50" stroke-linecap="round" stroke-linejoin="round"/>
</svg>
