<svg width="710" height="709" viewBox="0 0 710 709" fill="none" xmlns="http://www.w3.org/2000/svg">
<path d="M354.645 264.863L268.123 112.169C270.995 109.245 274.3 107.326 277.605 106.037C252.093 114.434 240.385 143.085 240.385 143.085L82.3213 421.958C80.0973 430.703 79.4796 438.595 79.7576 445.548H252.278L354.645 264.863Z" fill="#34A853"/>
<path d="M354.647 264.863L457.015 445.548H629.535C629.812 438.595 629.195 430.703 626.97 421.958L468.907 143.085C468.907 143.085 457.17 114.434 431.685 106.037C434.96 107.326 438.295 109.245 441.167 112.169L354.647 264.863Z" fill="#FBBC05"/>
<path d="M354.646 264.88L441.168 112.188C438.296 109.263 434.958 107.344 431.686 106.055C427.916 104.828 423.871 104.011 419.483 103.79H414.911H294.381H289.808C285.453 103.979 281.376 104.797 277.606 106.055C274.333 107.344 270.996 109.263 268.123 112.188L354.646 264.88Z" fill="#188038"/>
<path d="M252.303 445.55L166.769 596.515C166.769 596.515 163.928 595.13 160.066 592.268C172.206 601.61 184.006 603.59 184.006 603.59H519.933C538.465 603.59 542.328 596.515 542.328 596.515C542.388 596.483 542.42 596.45 542.48 596.42L457.01 445.55H252.303Z" fill="#4285F4"/>
<path d="M252.313 445.55H79.793C80.658 466.058 89.5542 478.04 89.5542 478.04L96.041 489.298C96.5045 489.96 96.7825 490.338 96.7825 490.338L110.899 515.12L142.592 570.285C143.518 572.518 144.6 574.56 145.743 576.51C146.175 577.173 146.576 577.895 147.04 578.525C147.163 578.713 147.287 578.903 147.411 579.09C151.334 584.625 155.72 588.903 160.106 592.268C163.967 595.163 166.809 596.515 166.809 596.515L252.313 445.55Z" fill="#1967D2"/>
<path d="M457.016 445.55H629.533C628.668 466.058 619.773 478.04 619.773 478.04L613.286 489.298C612.823 489.96 612.546 490.338 612.546 490.338L598.428 515.12L566.736 570.285C565.808 572.518 564.728 574.56 563.586 576.51C563.153 577.173 562.751 577.895 562.288 578.525C562.163 578.713 562.041 578.903 561.916 579.09C557.993 584.625 553.608 588.903 549.221 592.268C545.361 595.163 542.518 596.515 542.518 596.515L457.016 445.55Z" fill="#EA4335"/>
</svg>
