<?xml version="1.0" encoding="iso-8859-1"?>
<!-- Uploaded to: SVG Repo, www.svgrepo.com, Generator: SVG Repo Mixer Tools -->
<svg height="800px" width="800px" version="1.1" id="Layer_1" xmlns="http://www.w3.org/2000/svg" xmlns:xlink="http://www.w3.org/1999/xlink" 
	 viewBox="0 0 512 512" xml:space="preserve">
<path style="fill:#FFCD54;" d="M512,256.006C512,397.402,397.394,512.004,256.004,512C114.606,512.004,0,397.402,0,256.006
	C-0.007,114.61,114.606,0,256.004,0C397.394,0,512,114.614,512,256.006z"/>
<path style="fill:#F4BA41;" d="M511.768,266.529c-0.197-0.222-0.393-0.445-0.641-0.619c-0.462-0.657-89.426-89.623-90.085-90.085
	c-1.253-1.785-3.226-3.025-5.574-3.025h-4.365c-0.455-0.636-31.001-31.178-31.66-31.641c-1.254-1.786-3.226-3.026-5.575-3.026
	H232.16l-19.987-18.905c-1.294-1.219-2.993-1.895-4.767-1.895H96.533c-3.833,0-6.933,3.101-6.933,6.933v230.507
	c0,11.522,4.901,21.699,12.789,28.916c0.452,0.466,93.735,93.775,126.91,126.929c8.778,0.91,17.685,1.381,26.704,1.381
	C393.868,512.004,506.246,403.042,511.768,266.529z"/>
<g>
	<path style="fill:#F4F6F9;" d="M226.236,302.502l15.898-15.899V339.2c0,3.833,3.101,6.933,6.933,6.933h83.2
		c3.833,0,6.933-3.101,6.933-6.933v-52.596l15.898,15.898c1.355,1.355,3.129,2.031,4.902,2.031s3.548-0.677,4.902-2.031
		c2.708-2.708,2.708-7.095,0-9.804l-27.725-27.725l-0.018-0.018l-41.591-41.591c-2.708-2.708-7.095-2.708-9.804,0l-41.591,41.591
		l-0.018,0.018l-27.725,27.725c-2.708,2.708-2.708,7.095,0,9.804C219.138,305.21,223.527,305.211,226.236,302.502z M290.667,238.07
		l34.667,34.667v59.53H256v-59.53L290.667,238.07z"/>
	<path style="fill:#F4F6F9;" d="M415.467,172.8H380.8v-27.733c0-3.833-3.101-6.933-6.933-6.933H232.16l-19.987-18.905
		c-1.293-1.219-2.993-1.895-4.767-1.895H96.533c-3.833,0-6.933,3.101-6.933,6.933v230.507c0,22.371,18.274,39.893,41.6,39.893
		h241.178c26.65,0,50.022-23.555,50.022-50.416V179.733C422.4,175.901,419.299,172.8,415.467,172.8z M158.933,179.733v175.04
		c0,15.323-11.402,26.027-27.733,26.027c-15.81,0-27.733-11.193-27.733-26.027V131.2H204.65l19.987,18.905
		c1.293,1.219,2.993,1.895,4.767,1.895h137.53v20.8H165.867C162.034,172.8,158.933,175.901,158.933,179.733z M408.533,344.251
		c0,19.127-17.232,36.549-36.156,36.549H163.49c5.898-6.838,9.31-15.817,9.31-26.027V186.667h235.733V344.251z"/>
</g>
</svg>