<svg width="330" height="80" viewBox="0 0 330 80" fill="none" xmlns="http://www.w3.org/2000/svg">
<path d="M102.279 58.4397V22.9397H108.129V37.6397H125.679V22.9397H131.529V58.4397H125.679V43.1897H108.129V58.4397H102.279ZM159.729 55.1897C157.229 57.6897 154.129 58.9397 150.429 58.9397C146.729 58.9397 143.612 57.6897 141.079 55.1897C138.579 52.6563 137.329 49.573 137.329 45.9397C137.329 42.3063 138.579 39.2397 141.079 36.7397C143.612 34.2063 146.729 32.9397 150.429 32.9397C154.129 32.9397 157.229 34.2063 159.729 36.7397C162.262 39.2397 163.529 42.3063 163.529 45.9397C163.529 49.573 162.262 52.6563 159.729 55.1897ZM150.429 53.8397C152.596 53.8397 154.379 53.0897 155.779 51.5897C157.212 50.0563 157.929 48.173 157.929 45.9397C157.929 43.7063 157.212 41.8397 155.779 40.3397C154.379 38.8063 152.596 38.0397 150.429 38.0397C148.229 38.0397 146.412 38.8063 144.979 40.3397C143.579 41.8397 142.879 43.7063 142.879 45.9397C142.879 48.173 143.579 50.0563 144.979 51.5897C146.412 53.0897 148.229 53.8397 150.429 53.8397ZM169.061 58.4397V20.9397H174.561V58.4397H169.061ZM202.551 55.1897C200.051 57.6897 196.951 58.9397 193.251 58.9397C189.551 58.9397 186.435 57.6897 183.901 55.1897C181.401 52.6563 180.151 49.573 180.151 45.9397C180.151 42.3063 181.401 39.2397 183.901 36.7397C186.435 34.2063 189.551 32.9397 193.251 32.9397C196.951 32.9397 200.051 34.2063 202.551 36.7397C205.085 39.2397 206.351 42.3063 206.351 45.9397C206.351 49.573 205.085 52.6563 202.551 55.1897ZM193.251 53.8397C195.418 53.8397 197.201 53.0897 198.601 51.5897C200.035 50.0563 200.751 48.173 200.751 45.9397C200.751 43.7063 200.035 41.8397 198.601 40.3397C197.201 38.8063 195.418 38.0397 193.251 38.0397C191.051 38.0397 189.235 38.8063 187.801 40.3397C186.401 41.8397 185.701 43.7063 185.701 45.9397C185.701 48.173 186.401 50.0563 187.801 51.5897C189.235 53.0897 191.051 53.8397 193.251 53.8397ZM223.183 69.3897C219.783 69.3897 216.983 68.5563 214.783 66.8897C212.616 65.223 211.366 63.0563 211.033 60.3897H216.433C217.4 63.2563 219.7 64.6897 223.333 64.6897C225.3 64.6897 226.916 64.0397 228.183 62.7397C229.483 61.473 230.133 59.673 230.133 57.3397V54.3897C229.333 55.523 228.216 56.4563 226.783 57.1897C225.35 57.923 223.8 58.2897 222.133 58.2897C218.766 58.2897 215.916 57.073 213.583 54.6397C211.283 52.173 210.133 49.1563 210.133 45.5897C210.133 42.0563 211.283 39.073 213.583 36.6397C215.916 34.173 218.766 32.9397 222.133 32.9397C223.8 32.9397 225.35 33.3063 226.783 34.0397C228.216 34.7397 229.333 35.6563 230.133 36.7897V33.4397H235.633V56.8897C235.633 61.023 234.45 64.1397 232.083 66.2397C229.75 68.3397 226.783 69.3897 223.183 69.3897ZM217.833 51.0897C219.266 52.523 221.033 53.2397 223.133 53.2397C225.233 53.2397 227 52.523 228.433 51.0897C229.866 49.623 230.583 47.7897 230.583 45.5897C230.583 43.3897 229.866 41.573 228.433 40.1397C227 38.673 225.233 37.9397 223.133 37.9397C221.033 37.9397 219.266 38.673 217.833 40.1397C216.4 41.573 215.683 43.3897 215.683 45.5897C215.683 47.7897 216.4 49.623 217.833 51.0897ZM243.035 58.4397V33.4397H248.535V37.8897C249.002 36.4897 249.852 35.3563 251.085 34.4897C252.352 33.623 253.702 33.1897 255.135 33.1897C256.002 33.1897 256.719 33.2563 257.285 33.3897V39.0397C256.485 38.7397 255.569 38.5897 254.535 38.5897C252.869 38.5897 251.452 39.273 250.285 40.6397C249.119 41.973 248.535 43.8397 248.535 46.2397V58.4397H243.035ZM271.449 58.9397C268.049 58.9397 265.183 57.673 262.849 55.1397C260.549 52.6063 259.399 49.5397 259.399 45.9397C259.399 42.3397 260.549 39.273 262.849 36.7397C265.183 34.2063 268.049 32.9397 271.449 32.9397C273.149 32.9397 274.716 33.323 276.149 34.0897C277.583 34.823 278.683 35.723 279.449 36.7897V33.4397H284.949V58.4397H279.449V55.0897C278.683 56.1563 277.583 57.073 276.149 57.8397C274.716 58.573 273.149 58.9397 271.449 58.9397ZM267.099 51.6397C268.499 53.173 270.283 53.9397 272.449 53.9397C274.616 53.9397 276.399 53.173 277.799 51.6397C279.199 50.1063 279.899 48.2063 279.899 45.9397C279.899 43.673 279.199 41.773 277.799 40.2397C276.399 38.7063 274.616 37.9397 272.449 37.9397C270.283 37.9397 268.499 38.7063 267.099 40.2397C265.699 41.773 264.999 43.673 264.999 45.9397C264.999 48.2063 265.699 50.1063 267.099 51.6397ZM324.25 58.4397V44.3897C324.25 42.3563 323.867 40.773 323.1 39.6397C322.367 38.5063 321.267 37.9397 319.8 37.9397C318.034 37.9397 316.617 38.623 315.55 39.9897C314.484 41.3563 313.917 43.273 313.85 45.7397V58.4397H308.35V44.3897C308.35 42.3563 307.967 40.773 307.2 39.6397C306.467 38.5063 305.367 37.9397 303.9 37.9397C302.067 37.9397 300.6 38.6563 299.5 40.0897C298.434 41.523 297.9 43.5397 297.9 46.1397V58.4397H292.4V33.4397H297.9V36.8397C299.434 34.2397 301.8 32.9397 305 32.9397C308.767 32.9397 311.35 34.5897 312.75 37.8897C313.45 36.323 314.517 35.1063 315.95 34.2397C317.417 33.373 319.017 32.9397 320.75 32.9397C323.55 32.9397 325.75 33.8897 327.35 35.7897C328.95 37.6897 329.75 40.2563 329.75 43.4897V58.4397H324.25Z" fill="#F9F9F9"/>
<path fill-rule="evenodd" clip-rule="evenodd" d="M30.4972 79.9999L0 62.4526L0.135896 16.6907L47.1181 1.89526L77.6153 19.4425L77.4794 65.2045L30.4972 79.9999ZM31.3111 33.01L42.7163 29.4178L42.7698 11.3889L11.0788 21.3713L31.3111 33.01ZM50.4723 26.9751L66.4302 21.949L50.5145 12.7896L50.4723 26.9751ZM7.77109 54.9289L29.1003 48.2119L29.1358 36.2315L7.86296 23.9916L7.77109 54.9289ZM69.759 55.6725L69.8503 24.9336L50.4603 31.0397L50.4202 44.5453L69.759 55.6725ZM32.9782 46.9908L42.6731 43.9377L42.7042 33.4822L33.0093 36.5354L32.9782 46.9908ZM32.9065 71.1224L64.0357 61.319L46.081 50.9883L32.9541 55.1222L32.9065 71.1224ZM29.0349 70.2201L29.0761 56.3435L13.466 61.2593L29.0349 70.2201Z" fill="url(#paint0_linear_95_2)"/>
<defs>
<linearGradient id="paint0_linear_95_2" x1="38.6916" y1="80.0242" x2="38.9237" y2="1.87093" gradientUnits="userSpaceOnUse">
<stop stop-color="#6A4EA7"/>
<stop offset="1" stop-color="#9D50BB"/>
</linearGradient>
</defs>
</svg>
