<svg width="177" height="43" viewBox="0 0 177 43" fill="none" xmlns="http://www.w3.org/2000/svg">
<g clip-path="url(#clip0_2770_112)">
<path fill-rule="evenodd" clip-rule="evenodd" d="M0 15V31H5C5.52527 31 6.04541 31.1035 6.53076 31.3045C7.01599 31.5055 7.45703 31.8001 7.82837 32.1716C8.19983 32.543 8.49451 32.984 8.69556 33.4693C8.89648 33.9546 9 34.4747 9 35V40H21L36 25V9H31C30.4747 9 29.9546 8.89655 29.4692 8.69553C28.984 8.49451 28.543 8.19986 28.1716 7.82843C27.8002 7.457 27.5055 7.01602 27.3044 6.53073C27.1035 6.04544 27 5.5253 27 5V0H15L0 15ZM17 30H10V19L19 10H26V21L17 30Z" fill="white"/>
<path d="M48.8391 32.3418V7.1418H54.5991V27.3018H61.5831V32.3418H48.8391ZM66.6352 32.3418L72.7552 7.1418H80.6752L86.7952 32.3418H81.0712L77.2912 14.4498L77.0392 12.1818C77.0152 11.9658 76.9072 11.8578 76.7152 11.8578C76.5232 11.8578 76.4152 11.9658 76.3912 12.1818L76.1392 14.4498L72.3592 32.3418H66.6352ZM73.0072 26.5098L74.0512 21.8298H79.3432L80.4232 26.5098H73.0072ZM68.9752 11.8218V7.1418H73.2952L72.5752 11.8218H68.9752ZM94.8873 32.3418V23.1618L88.6233 7.1418H94.4193L97.0833 14.3418L97.4793 17.1498C97.5273 17.3658 97.6233 17.4738 97.7673 17.4738C97.9113 17.4738 98.0193 17.3658 98.0913 17.1498L98.5233 14.3418L101.187 7.1418H106.911L100.647 23.1618V32.3418H94.8873ZM111.405 32.3418V28.8138L120.441 13.6218L121.701 12.4698C121.845 12.3258 121.893 12.1818 121.845 12.0378C121.797 11.8938 121.677 11.8218 121.485 11.8218H116.625V14.1978H111.405V7.1418H128.217V10.6698L119.217 25.5018L117.957 26.6538C117.813 26.7978 117.765 26.9418 117.813 27.0858C117.861 27.2298 117.981 27.3018 118.173 27.3018H128.217V32.3418H111.405ZM135.24 32.3418V7.1418H150.72V12.1818H140.46V17.4018H150.108V22.0818H140.46V27.3018H150.72V32.3418H135.24ZM158.273 32.3418V7.1418H167.669C170.405 7.1418 172.517 7.8018 174.005 9.1218C175.517 10.4418 176.273 12.3018 176.273 14.7018C176.273 16.3098 175.865 17.7138 175.049 18.9138C174.233 20.1138 173.081 21.0138 171.593 21.6138C171.233 21.7578 171.161 22.0098 171.377 22.3698L172.637 24.1698L175.625 32.3418H169.901L166.193 22.2618H164.033V32.3418H158.273ZM163.997 17.5818H167.885C168.917 17.5818 169.721 17.3298 170.297 16.8258C170.873 16.3218 171.161 15.6138 171.161 14.7018C171.161 13.7898 170.873 13.0818 170.297 12.5778C169.721 12.0738 168.917 11.8218 167.885 11.8218H163.997V17.5818Z" fill="white"/>
</g>
<defs>
<clipPath id="clip0_2770_112">
<rect width="177" height="43" fill="white"/>
</clipPath>
</defs>
</svg>
