<svg width="358" height="358" viewBox="0 0 358 358" fill="none" xmlns="http://www.w3.org/2000/svg">
<g clip-path="url(#clip0_27_1457)">
<path d="M235.469 230.477L235.241 231.225L236.36 231.567L236.588 230.819L235.469 230.477Z" fill="#436FFF"/>
<path d="M235.854 229.464C235.577 229.379 235.281 229.379 235.003 229.463C234.726 229.547 234.479 229.712 234.295 229.936C234.111 230.161 233.997 230.435 233.968 230.724C233.939 231.013 233.997 231.304 234.133 231.561C234.269 231.818 234.478 232.028 234.733 232.166C234.988 232.303 235.279 232.362 235.567 232.334C235.856 232.306 236.13 232.193 236.354 232.01C236.579 231.826 236.744 231.58 236.829 231.302C236.941 230.928 236.902 230.526 236.719 230.182C236.536 229.837 236.226 229.58 235.854 229.464Z" fill="#436FFF"/>
<path d="M266.227 209.476H321.857V153.704H266.227V209.476Z" fill="white" fill-opacity="0.13"/>
<path d="M266.227 153.704H262.374V209.476H266.227V153.704Z" fill="white" fill-opacity="0.13"/>
<path opacity="0.1" d="M266.227 153.704H262.374V209.476H266.227V153.704Z" fill="#1C2024"/>
<path d="M309.354 185.5C305.26 190.994 300.035 195.541 294.034 198.833C288.037 195.54 282.815 190.993 278.723 185.5C273.325 178.345 273.591 167.146 281.305 164.722C289.838 162.04 294.034 174.888 294.034 174.888C294.034 174.888 298.293 161.93 306.772 164.722C314.455 167.232 314.72 178.352 309.354 185.5Z" fill="white"/>
<path d="M288.013 193.187L285.688 183.475L284.175 186.9H274.776V185.805H283.465L286 180.081L287.818 187.651L290.376 171.964L292.638 184.374L294.432 179.189L297.256 187.674L297.88 185.797H313.308V186.892H298.668L297.248 191.13L294.409 182.591L292.311 188.667L290.439 178.376L288.013 193.187Z" fill="white" fill-opacity="0.13"/>
<path d="M261.664 181.199H260.494V181.981H261.664V181.199Z" fill="white" fill-opacity="0.13"/>
<path d="M258.295 181.981H256.103V181.199H258.295V181.981ZM253.903 181.981H251.704V181.199H253.88L253.903 181.981ZM249.512 181.981H247.312V181.199H249.512V181.981ZM245.113 181.981H242.913V181.199H245.113V181.981ZM240.721 181.981H238.522V181.199H240.721V181.981ZM236.322 181.981H234.13V181.199H236.322V181.981ZM231.931 181.981H229.7V181.199H231.9L231.931 181.981Z" fill="white" fill-opacity="0.13"/>
<path d="M227.539 181.199H226.369V181.981H227.539V181.199Z" fill="white" fill-opacity="0.13"/>
<path d="M226.44 183.06C227.249 183.06 227.906 182.402 227.906 181.59C227.906 180.778 227.249 180.12 226.44 180.12C225.63 180.12 224.973 180.778 224.973 181.59C224.973 182.402 225.63 183.06 226.44 183.06Z" fill="white" fill-opacity="0.13"/>
<path d="M243.654 105.275H299.284V49.5024L243.654 49.5024V105.275Z" fill="white" fill-opacity="0.13"/>
<path d="M243.654 49.5024H239.801V105.275H243.654V49.5024Z" fill="white" fill-opacity="0.13"/>
<path opacity="0.1" d="M243.654 49.5024H239.801V105.275H243.654V49.5024Z" fill="#1C2024"/>
<path d="M287.077 65.6741L286.242 66.4561L273.029 79.0698C272.843 79.2917 272.611 79.4702 272.349 79.5927C272.087 79.7151 271.801 79.7786 271.512 79.7786C271.223 79.7786 270.937 79.7151 270.675 79.5927C270.413 79.4702 270.181 79.2917 269.995 79.0698L256.438 66.2606L255.908 65.7366C256.26 65.5157 256.671 65.4066 257.086 65.4238H266.259L285.4 65.3456C285.979 65.2762 286.566 65.3911 287.077 65.6741Z" fill="white"/>
<path d="M287.038 89.1341C286.668 89.2358 286.289 89.3039 285.907 89.3374C282.249 89.3374 278.59 89.3374 274.932 89.3921L257.296 89.4625C256.796 89.4822 256.301 89.3574 255.869 89.1028L266.789 78.6475L268.903 80.6416L269.8 81.4861C270.018 81.7132 270.28 81.8938 270.569 82.0171C270.859 82.1405 271.17 82.2041 271.485 82.2041C271.799 82.2041 272.11 82.1405 272.4 82.0171C272.689 81.8938 272.951 81.7132 273.169 81.4861C274.137 80.5712 275.096 79.6406 276.102 78.6709L287.022 89.0011L287.038 89.1341Z" fill="white"/>
<path d="M265.479 77.3806C261.93 80.8449 258.326 84.2075 254.816 87.6874C254.773 87.5183 254.747 87.3455 254.738 87.1713C254.707 80.712 254.681 74.2526 254.66 67.7933C254.669 67.5886 254.693 67.3848 254.73 67.1833L265.479 77.3806Z" fill="white"/>
<path d="M288.2 87.578C286.874 86.3059 285.54 85.0339 284.199 83.7618L277.709 77.6231L277.452 77.4198C281.024 73.9321 284.635 70.5617 288.122 67.1052C288.27 67.4806 288.356 87.0619 288.2 87.578Z" fill="white"/>
<path d="M270.837 108.622H270.057V109.795H270.837V108.622Z" fill="white" fill-opacity="0.13"/>
<path d="M270.837 118.882H270.057V116.614H270.837V118.882ZM270.837 114.338H270.057V112.062H270.837V114.338Z" fill="white" fill-opacity="0.13"/>
<path d="M269.441 123.042L269.215 122.291L270.057 122.033V121.157H270.837V122.62L269.441 123.042Z" fill="white" fill-opacity="0.13"/>
<path d="M230.659 134.881L230.433 134.099L232.586 133.442L232.82 134.224L230.659 134.881ZM234.973 133.568L234.747 132.786L236.899 132.121L237.126 132.903L234.973 133.568ZM239.278 132.254L239.052 131.472L241.205 130.815L241.431 131.597L239.278 132.254ZM243.592 130.94L243.358 130.158L245.518 129.501L245.745 130.283L243.592 130.94ZM247.897 129.618L247.671 128.876L249.824 128.219L250.05 128.962L247.897 129.618ZM252.203 128.305L251.977 127.523L254.137 126.866L254.364 127.648L252.203 128.305ZM256.516 126.991L256.29 126.209L258.443 125.552L258.669 126.334L256.516 126.991ZM260.822 125.677L260.596 124.895L262.749 124.238L262.975 125.02L260.822 125.677ZM265.135 124.356L264.909 123.613L267.062 122.956L267.288 123.699L265.135 124.356Z" fill="white" fill-opacity="0.13"/>
<path d="M228.278 134.818L227.158 135.159L227.385 135.907L228.505 135.566L228.278 134.818Z" fill="white" fill-opacity="0.13"/>
<path d="M227.344 136.961C228.154 136.961 228.811 136.303 228.811 135.491C228.811 134.679 228.154 134.021 227.344 134.021C226.535 134.021 225.878 134.679 225.878 135.491C225.878 136.303 226.535 136.961 227.344 136.961Z" fill="white" fill-opacity="0.13"/>
<path d="M110.118 313.677H113.971V257.905H110.118V313.677Z" fill="white" fill-opacity="0.16"/>
<path opacity="0.1" d="M110.118 313.677H113.971V257.905H110.118V313.677Z" fill="#1C2024"/>
<path d="M125.353 227.699L124.233 228.041L124.46 228.789L125.58 228.448L125.353 227.699Z" fill="white" fill-opacity="0.16"/>
<path d="M125.827 229.48C126.105 229.396 126.352 229.231 126.537 229.006C126.721 228.781 126.835 228.507 126.864 228.217C126.892 227.928 126.835 227.636 126.698 227.379C126.561 227.123 126.351 226.912 126.095 226.775C125.839 226.638 125.548 226.58 125.26 226.609C124.971 226.638 124.697 226.752 124.473 226.937C124.248 227.122 124.084 227.369 124 227.648C123.917 227.927 123.917 228.224 124.002 228.502C124.057 228.687 124.147 228.86 124.269 229.01C124.39 229.159 124.541 229.283 124.71 229.374C124.88 229.465 125.067 229.522 125.258 229.54C125.45 229.558 125.644 229.537 125.827 229.48Z" fill="white" fill-opacity="0.16"/>
<path d="M87.545 153.704H31.9154V209.476H87.545V153.704Z" fill="white" fill-opacity="0.13"/>
<path d="M87.545 209.476H91.3982V153.704H87.545V209.476Z" fill="white" fill-opacity="0.13"/>
<path opacity="0.1" d="M87.545 209.476H91.3982V153.704H87.545V209.476Z" fill="#1C2024"/>
<path d="M71.8748 197.511C71.267 198.063 70.5195 198.436 69.7142 198.591C69.3554 198.677 68.9966 198.731 68.6378 198.802H66.758C66.134 198.7 65.51 198.622 64.886 198.489C62.4327 197.943 60.1109 196.917 58.0532 195.47C53.2145 192.211 49.066 188.026 45.8462 183.154C44.422 181.118 43.4146 178.819 42.8822 176.39C42.7496 175.748 42.6638 175.099 42.5624 174.45V172.636C42.6633 172.044 42.8014 171.459 42.9758 170.884C43.198 170.345 43.4587 169.822 43.7558 169.32C43.904 169.453 43.982 169.508 44.0522 169.571C46.6262 172.177 49.2028 174.758 51.782 177.312C51.853 177.372 51.9033 177.452 51.9257 177.542C51.9481 177.632 51.9415 177.727 51.9068 177.813C51.6942 178.459 51.6595 179.152 51.8064 179.816C51.9533 180.481 52.2763 181.094 52.7414 181.59C54.9252 184.087 57.2702 186.439 59.7614 188.628C60.2599 189.08 60.8695 189.391 61.5276 189.528C62.1856 189.666 62.8683 189.625 63.5054 189.41C63.5782 189.374 63.6605 189.362 63.7405 189.376C63.8204 189.39 63.8938 189.429 63.95 189.488L71.75 197.363L71.8748 197.511Z" fill="white"/>
<path d="M76.3988 192.992C75.494 193.909 74.5866 194.819 73.6766 195.721L73.4816 195.901L65.5646 187.971C65.744 187.799 65.9624 187.611 66.1652 187.416C66.9452 186.634 67.7252 185.852 68.5052 185.07C68.6221 184.913 68.774 184.785 68.9486 184.698C69.1233 184.61 69.316 184.564 69.5114 184.564C69.7068 184.564 69.8995 184.61 70.0742 184.698C70.2489 184.785 70.4007 184.913 70.5176 185.07C72.4936 187.041 74.4618 189.014 76.4222 190.99C76.5773 191.107 76.7027 191.259 76.7883 191.434C76.8739 191.609 76.9173 191.802 76.915 191.997C76.9128 192.191 76.8649 192.383 76.7752 192.556C76.6855 192.729 76.5566 192.878 76.3988 192.992Z" fill="white"/>
<path d="M56.306 172.722C55.2998 173.707 54.2702 174.669 53.2562 175.631L45.4562 167.811C45.5034 167.747 45.5555 167.687 45.6122 167.631C46.5326 166.703 47.4556 165.775 48.3812 164.847C48.4966 164.701 48.6435 164.582 48.811 164.501C48.9785 164.42 49.1623 164.377 49.3484 164.377C49.5345 164.377 49.7183 164.42 49.8858 164.501C50.0533 164.582 50.2002 164.701 50.3156 164.847C52.3046 166.841 54.3014 168.835 56.2826 170.83C56.4243 170.942 56.5391 171.085 56.6187 171.248C56.6984 171.411 56.7409 171.589 56.7431 171.77C56.7454 171.951 56.7073 172.131 56.6317 172.296C56.5561 172.46 56.4448 172.606 56.306 172.722Z" fill="white"/>
<path d="M93.4574 181.199H92.2874V181.981H93.4574V181.199Z" fill="white" fill-opacity="0.13"/>
<path d="M102.482 181.981H100.22V181.199H102.474L102.482 181.981ZM97.9736 181.981H95.7116V181.199H97.9736V181.981Z" fill="white" fill-opacity="0.13"/>
<path d="M105.914 181.199H104.744V181.981H105.914V181.199Z" fill="white" fill-opacity="0.13"/>
<path d="M105.836 183.06C106.126 183.06 106.41 182.974 106.651 182.812C106.892 182.651 107.08 182.421 107.191 182.153C107.302 181.884 107.331 181.588 107.274 181.303C107.218 181.018 107.078 180.756 106.873 180.55C106.668 180.345 106.407 180.205 106.122 180.148C105.838 180.091 105.543 180.121 105.275 180.232C105.007 180.343 104.778 180.531 104.617 180.773C104.456 181.015 104.37 181.299 104.37 181.59C104.37 181.98 104.524 182.354 104.799 182.63C105.074 182.905 105.447 183.06 105.836 183.06Z" fill="white" fill-opacity="0.13"/>
<path d="M110.118 49.5024H54.4886V105.275H110.118V49.5024Z" fill="white" fill-opacity="0.13"/>
<path d="M110.118 105.275H113.971V49.5024H110.118V105.275Z" fill="white" fill-opacity="0.13"/>
<path opacity="0.1" d="M110.118 105.275H113.971V49.5024H110.118V105.275Z" fill="#1C2024"/>
<path d="M91.8974 69.7641C91.8757 71.6075 91.3092 73.4031 90.2697 74.9237C89.2301 76.4444 87.7641 77.6219 86.0571 78.3073C84.35 78.9927 82.4786 79.1552 80.6794 78.7743C78.8803 78.3934 77.2342 77.4862 75.9493 76.1673C74.6644 74.8485 73.7984 73.1774 73.4609 71.3651C73.1233 69.5529 73.3293 67.681 74.0528 65.9862C74.7764 64.2914 75.9849 62.8497 77.5257 61.8434C79.0665 60.8372 80.8703 60.3116 82.709 60.3332C83.93 60.3474 85.1362 60.6027 86.2588 61.0844C87.3814 61.5661 88.3984 62.2648 89.2516 63.1406C90.1048 64.0163 90.7777 65.052 91.2316 66.1885C91.6856 67.325 91.9118 68.5399 91.8974 69.7641Z" fill="white"/>
<path d="M98.3324 94.4675H66.2666C66.4696 90.3416 68.2474 86.4519 71.2319 83.6037C74.2164 80.7555 78.1791 79.167 82.2995 79.167C86.4199 79.167 90.3826 80.7555 93.3671 83.6037C96.3516 86.4519 98.1294 90.3416 98.3324 94.4675Z" fill="white"/>
<path d="M82.6934 108.622H81.9134V109.795H82.6934V108.622Z" fill="white" fill-opacity="0.13"/>
<path d="M82.6934 118.882H81.9134V116.614H82.6934V118.882ZM82.6934 114.338H81.9134V112.062H82.6934V114.338Z" fill="white" fill-opacity="0.13"/>
<path d="M83.3018 123.042L81.9134 122.62V121.157H82.6934V122.033L83.5358 122.291L83.3018 123.042Z" fill="white" fill-opacity="0.13"/>
<path d="M122.06 134.881L119.907 134.224L120.133 133.442L122.286 134.099L122.06 134.881ZM117.754 133.568L115.602 132.911L115.828 132.129L117.981 132.793L117.754 133.568ZM113.48 132.254L111.327 131.597L111.553 130.815L113.706 131.472L113.48 132.254ZM109.174 130.94L107.022 130.283L107.248 129.501L109.401 130.158L109.174 130.94ZM104.869 129.618L102.708 128.962L102.934 128.219L105.095 128.876L104.869 129.618ZM100.555 128.305L98.4026 127.648L98.6288 126.866L100.782 127.523L100.555 128.305ZM96.2498 126.991L94.0892 126.334L94.3232 125.552L96.476 126.209L96.2498 126.991ZM91.9364 125.677L89.7836 125.02L90.0098 124.238L92.1626 124.895L91.9364 125.677ZM87.6308 124.356L85.478 123.699L85.7042 122.956L87.857 123.613L87.6308 124.356Z" fill="white" fill-opacity="0.13"/>
<path d="M124.472 134.8L124.245 135.548L125.364 135.89L125.592 135.142L124.472 134.8Z" fill="white" fill-opacity="0.13"/>
<path d="M124.977 136.899C125.255 136.983 125.551 136.984 125.828 136.9C126.106 136.816 126.352 136.651 126.536 136.427C126.721 136.202 126.834 135.928 126.863 135.639C126.892 135.35 126.835 135.059 126.699 134.802C126.563 134.545 126.354 134.335 126.098 134.197C125.843 134.06 125.553 134.001 125.264 134.029C124.976 134.057 124.702 134.17 124.477 134.353C124.252 134.537 124.087 134.783 124.002 135.061C123.946 135.246 123.926 135.44 123.944 135.633C123.963 135.825 124.019 136.012 124.109 136.183C124.2 136.353 124.323 136.505 124.472 136.627C124.621 136.75 124.793 136.843 124.977 136.899Z" fill="white" fill-opacity="0.13"/>
<path d="M187.869 303.903H140.46V307.39H187.869V303.903Z" fill="#C7C7C7"/>
<path d="M144.415 188.659L144.165 207.599L142.566 296.701L142.512 300.704L141.81 353.419H139.126L138.417 300.704L138.37 296.701L136.763 207.599L136.513 188.659H144.415Z" fill="#C7C7C7"/>
<path d="M136.513 188.659H144.415L144.165 207.599H136.763L136.513 188.659Z" fill="#A6A6A6"/>
<path d="M191.823 188.659L191.566 207.599L189.21 353.419H186.527L185.825 300.704L185.77 296.701L184.164 207.599L183.914 188.659H191.823Z" fill="#C7C7C7"/>
<path d="M191.823 188.659L191.566 207.599H184.164L183.914 188.659H191.823Z" fill="#A6A6A6"/>
<path d="M163.322 303.903H116.787V307.39H163.322V303.903Z" fill="#C7C7C7"/>
<path d="M120.742 188.659L120.484 207.599L118.885 296.701L118.831 300.704L118.129 353.419H115.446L113.09 207.599L112.833 188.659H120.742Z" fill="#C7C7C7"/>
<path d="M112.833 188.659H120.742L120.484 207.599H113.09L112.833 188.659Z" fill="#A6A6A6"/>
<path d="M167.277 188.659L167.027 207.599L165.42 296.701L165.373 300.704L164.664 353.419H161.988L161.278 300.704L161.232 296.701L159.625 207.599L159.375 188.659H167.277Z" fill="#C7C7C7"/>
<path d="M159.375 188.659H167.277L167.027 207.599H159.625L159.375 188.659Z" fill="#A6A6A6"/>
<path d="M195.926 169.696H109.689V190.215H195.926V169.696Z" fill="#436FFF"/>
<path d="M195.926 169.696H109.689V190.215H195.926V169.696Z" fill="#1C2024"/>
<path d="M177.916 169.696H109.689V190.215H177.916V169.696Z" fill="#1C2024"/>
<path d="M170.662 249.507L139.719 274.578C133.776 279.34 128.659 283.618 126.217 286.081C126.208 286.084 126.2 286.089 126.193 286.096C126.187 286.103 126.181 286.111 126.178 286.12C125.25 287.043 124.72 287.684 124.689 288.028C124.689 288.028 124.689 288.075 124.689 288.091C124.907 290.828 161.466 339.515 163.306 340.782C165.147 342.049 168.907 336.872 168.985 333.853C169.063 330.835 163.4 305.928 163.4 305.928L194.07 280.591L170.662 249.507Z" fill="white"/>
<path d="M166.239 318.909C167.643 325.463 169.016 332.344 168.985 333.853C168.899 336.872 165.147 342.064 163.306 340.782C161.466 339.499 124.899 290.828 124.689 288.099C124.689 288.099 124.689 288.059 124.689 288.028C124.689 287.708 125.25 287.043 126.178 286.12C126.178 286.12 126.178 286.12 126.178 286.081C128.16 284.079 131.919 280.888 136.435 277.205C137.481 276.345 138.573 275.477 139.688 274.57L170.631 249.499L194.031 280.56L163.4 305.928C163.4 305.928 164.843 312.255 166.263 318.925L166.239 318.909Z" fill="white"/>
<path d="M168.985 333.853C168.899 336.872 165.147 342.064 163.306 340.782C161.466 339.499 124.899 290.828 124.689 288.098C124.689 288.098 124.689 288.059 124.689 288.028C124.689 287.707 125.25 287.043 126.178 286.12C126.178 286.12 126.178 286.12 126.178 286.081C128.16 284.079 131.919 280.888 136.435 277.205C143.143 290.804 161.544 327.347 165.256 327.097C166.575 327.003 166.536 322.827 166.208 318.909C167.643 325.478 169.016 332.344 168.985 333.853Z" fill="#1C2024"/>
<path d="M187.385 219.65C185.193 230.496 140.304 273.78 140.304 273.78L171.598 309.995C171.598 309.995 235.332 246.215 232.04 222.254C229.154 201.414 198.024 117.583 198.024 117.583H162.144C162.144 117.583 189.538 208.96 187.385 219.65Z" fill="#1C2024"/>
<path d="M187.385 219.65C185.193 230.496 140.304 273.78 140.304 273.78L171.598 309.995C171.598 309.995 235.332 246.215 232.04 222.254C229.154 201.414 198.024 117.583 198.024 117.583H162.144C162.144 117.583 189.538 208.96 187.385 219.65Z" fill="#1C2024"/>
<path d="M175.162 301.385C171.005 296.192 172.269 297.623 168.057 292.478C165.99 289.967 152.418 273.444 150.117 271.434C150.104 271.422 150.088 271.416 150.072 271.415C150.055 271.414 150.038 271.419 150.025 271.43C150.012 271.44 150.003 271.455 149.999 271.472C149.996 271.488 149.999 271.505 150.007 271.52C151.567 274.179 165.436 290.46 167.542 292.939C171.855 297.999 170.662 296.497 175.045 301.541C175.1 301.604 175.24 301.478 175.162 301.385Z" fill="#1C2024"/>
<path d="M191.847 214.364C191.332 211.658 190.747 208.96 190.177 206.262C189.007 200.757 187.77 195.265 186.465 189.785C183.865 178.926 181.054 168.127 178.033 157.387C174.967 146.611 171.73 135.851 168.01 125.286C167.55 123.988 167.074 122.682 166.598 121.376C166.592 121.355 166.578 121.338 166.559 121.328C166.54 121.317 166.517 121.315 166.497 121.321C166.476 121.328 166.459 121.342 166.448 121.361C166.438 121.38 166.436 121.402 166.442 121.423C169.663 132.003 172.994 142.537 176.02 153.203C179.047 163.87 181.824 174.466 184.452 185.164C185.77 190.536 187.003 195.932 188.204 201.336C188.792 203.984 189.366 206.64 189.928 209.304C190.636 212.015 191.14 214.775 191.433 217.562C191.524 220.189 190.787 222.777 189.327 224.96C187.978 227.173 186.394 229.245 184.866 231.333C181.792 235.501 152.566 268.157 151.622 269.049C151.552 269.119 151.622 269.221 151.739 269.151C155.639 265.624 180.459 238.707 183.61 234.539C185.17 232.483 186.683 230.395 188.181 228.283C189.667 226.367 190.868 224.244 191.745 221.98C192.572 219.462 192.322 216.89 191.847 214.364Z" fill="#1C2024"/>
<path d="M191.769 117.568L185.24 203.361C179 173.997 162.066 117.568 162.066 117.568H191.769Z" fill="#1C2024"/>
<path d="M179.437 294.198C179.437 294.198 187.19 332.039 187.19 332.07C187.291 339.695 187.518 346.373 187.97 349.814C187.97 349.814 187.97 349.853 187.97 349.876C188.134 351.175 188.321 352.003 188.563 352.222L188.602 352.269C190.887 353.771 251.665 354.717 253.802 354.037C255.939 353.356 254.161 347.21 251.829 345.286C249.496 343.362 226.377 332.571 226.377 332.571L218.25 294.745L179.437 294.198Z" fill="white"/>
<path d="M253.802 354.037C251.673 354.725 190.887 353.787 188.61 352.277C188.61 352.277 188.61 352.277 188.555 352.223C188.321 352.011 188.126 351.182 187.962 349.877C187.962 349.877 187.962 349.877 187.962 349.83C187.627 347.077 187.401 342.275 187.276 336.575C202.72 339.593 241.486 346.78 243.498 343.714C244.278 342.534 240.464 339.804 236.97 337.615C243.397 340.743 250.588 344.27 251.836 345.294C254.161 347.218 255.939 353.372 253.802 354.037Z" fill="#1C2024"/>
<path d="M197.587 117.576C196.191 123.502 195.162 129.508 194.506 135.562C193.726 143.1 192.814 149.763 191.815 150.592C190.677 151.53 185.006 155.182 183.095 156.355C183.095 156.355 200.785 210.133 205.356 228.064C211.971 254.05 227.828 332.024 227.828 332.024H185.583C185.583 332.024 172.76 257.765 167.121 233.022C162.308 211.807 144.742 152.07 144.742 152.07C138.034 135.523 148.876 117.576 148.876 117.576C148.876 117.576 197.595 117.544 197.587 117.576Z" fill="#1C2024"/>
<path d="M226.307 323.758C219.661 323.719 221.572 323.641 214.927 323.68C211.682 323.68 190.333 323.844 187.307 324.391C187.237 324.391 187.237 324.516 187.307 324.524C190.349 324.986 211.69 324.469 214.942 324.383C221.58 324.219 219.669 324.196 226.307 323.953C226.328 323.947 226.347 323.934 226.36 323.917C226.373 323.899 226.381 323.878 226.381 323.856C226.381 323.833 226.373 323.812 226.36 323.794C226.347 323.777 226.328 323.764 226.307 323.758Z" fill="#1C2024"/>
<path d="M194.803 148.449C190.698 150.71 186.799 153.327 183.15 156.269C183.009 156.378 183.15 156.613 183.306 156.511C187.26 154.032 191.301 151.616 195.115 148.918C195.177 148.877 195.22 148.812 195.235 148.739C195.249 148.666 195.234 148.589 195.193 148.527C195.151 148.465 195.087 148.422 195.014 148.407C194.941 148.392 194.865 148.407 194.803 148.449Z" fill="#1C2024"/>
<path d="M191.597 119.867C191.597 119.726 191.301 119.734 191.332 119.867C192.054 124.374 192.543 128.916 192.798 133.474C192.939 135.687 193.056 148.042 189.14 147.745C188.485 147.698 188.064 147.12 187.814 146.181C187.634 144.927 187.611 143.656 187.744 142.396C187.744 139.808 187.744 137.219 187.533 134.631C187.244 129.808 186.459 125.029 185.193 120.367C185.183 120.339 185.163 120.316 185.137 120.302C185.112 120.287 185.081 120.282 185.052 120.288C185.023 120.294 184.997 120.309 184.979 120.332C184.96 120.356 184.951 120.385 184.951 120.414C186.067 127.003 186.685 133.666 186.8 140.347C186.8 143.561 185.965 148.535 189.319 148.504C192.673 148.472 193.664 140.222 193.734 137.994C193.839 131.882 193.12 125.785 191.597 119.867Z" fill="#1C2024"/>
<path d="M189.288 148.081C189.076 148.948 188.922 149.829 188.828 150.717C188.683 151.412 188.669 152.128 188.789 152.828C188.8 152.855 188.819 152.878 188.844 152.894C188.868 152.91 188.896 152.919 188.926 152.919C188.955 152.919 188.983 152.91 189.007 152.894C189.032 152.878 189.051 152.855 189.062 152.828C189.359 152.147 189.551 151.424 189.631 150.685C189.795 149.903 189.982 149.051 190.123 148.23C190.125 148.127 190.09 148.027 190.025 147.948C189.961 147.869 189.87 147.816 189.769 147.798C189.668 147.78 189.564 147.798 189.476 147.85C189.388 147.902 189.321 147.984 189.288 148.081Z" fill="#1C2024"/>
<path d="M180.669 300.454C180.56 299.469 180.427 298.491 180.287 297.514C180.022 295.637 179.71 293.768 179.421 291.899C178.844 288.13 178.197 284.376 177.534 280.63C176.208 273.147 174.679 265.694 173.064 258.273C172.152 254.074 171.091 249.929 169.944 245.761C169.866 245.472 169.461 245.612 169.507 245.894C170.186 249.687 170.841 253.479 171.613 257.256C172.386 261.033 173.173 264.787 173.907 268.556C175.381 276.009 176.754 283.477 178.228 290.929C178.641 293.033 179.008 295.144 179.429 297.248C179.632 298.304 179.842 299.351 180.069 300.376C180.295 301.4 180.615 302.44 180.786 303.504C180.786 303.606 180.95 303.559 180.934 303.504C180.802 302.456 180.786 301.432 180.669 300.454Z" fill="#1C2024"/>
<path d="M209.802 244.15C208.39 237.112 206.495 230.191 204.592 223.286C200.754 209.382 196.23 195.69 191.722 181.997C190.427 178.055 189.127 174.112 187.822 170.165C187.174 168.194 183.992 157.559 183.594 156.543C183.587 156.521 183.571 156.503 183.551 156.493C183.53 156.482 183.507 156.481 183.485 156.488C183.463 156.495 183.445 156.511 183.435 156.531C183.425 156.552 183.423 156.576 183.43 156.597C184.343 160.218 185.599 165.504 186.652 169.109C187.705 172.714 188.828 176.147 189.928 179.705C192.088 186.634 194.28 193.555 196.378 200.514C200.52 214.254 204.631 227.994 207.993 241.96C208.936 245.87 209.872 249.78 210.73 253.69C211.588 257.6 212.29 261.565 213.141 265.491C213.141 265.6 213.343 265.569 213.336 265.491C212.626 258.273 211.214 251.188 209.802 244.15Z" fill="#1C2024"/>
<path d="M183.68 281.874C181.426 268.791 178.719 255.778 175.724 242.844C172.729 229.91 169.367 216.929 165.67 204.112C161.973 191.295 157.87 178.595 153.494 166.013C151.411 160.046 149.29 154.064 147.925 147.886C146.56 141.708 145.39 131.816 151.747 119.085C151.801 118.983 151.45 118.928 151.396 119.03C143.034 133.474 146.817 148.566 150.569 159.991C152.628 166.247 154.82 172.456 156.809 178.759C158.889 185.187 160.886 191.647 162.799 198.137C166.582 210.993 170.092 223.943 173.244 236.956C176.395 249.968 179.195 263.09 181.66 276.267C184.125 289.443 186.215 302.769 188.329 316.055C188.602 317.783 188.82 319.519 189.039 321.255C189.039 321.349 189.202 321.349 189.195 321.255C187.674 308.055 185.958 294.98 183.68 281.874Z" fill="#1C2024"/>
<path d="M156.045 136.813C156.895 136.484 157.839 136.414 158.72 136.164C159.645 135.916 160.552 135.605 161.434 135.233C163.109 134.52 164.682 133.589 166.114 132.465C167.489 131.28 168.545 129.769 169.188 128.07C169.578 127.163 171.27 122.369 171.286 122.338C171.301 122.307 171.567 122.268 171.559 122.385C171.512 123.026 170.545 127.124 170.217 128.156C169.68 130.106 168.597 131.862 167.097 133.216C165.547 134.511 163.773 135.51 161.863 136.164C160.888 136.514 159.883 136.775 158.86 136.946C157.917 137.167 156.943 137.217 155.982 137.094C155.873 137.063 155.92 136.852 156.045 136.813Z" fill="#1C2024"/>
<path d="M203.5 133.677C203.034 133.477 202.555 133.312 202.065 133.184C201.548 132.97 201.052 132.708 200.583 132.402C199.588 131.756 198.694 130.965 197.931 130.056C197.06 128.878 196.405 127.554 195.996 126.146C195.723 125.364 194.99 120.915 194.982 120.884C194.974 120.852 194.834 120.829 194.85 120.938C194.927 122.726 195.135 124.506 195.474 126.264C195.846 127.89 196.521 129.431 197.463 130.807C198.256 131.847 199.261 132.705 200.411 133.325C200.918 133.604 201.461 133.81 202.026 133.935C202.514 134.101 203.043 134.101 203.531 133.935C203.609 133.888 203.57 133.708 203.5 133.677Z" fill="#1C2024"/>
<path d="M190.287 60.3097C191.714 63.9538 193.742 67.2617 194.873 71.0387C195.982 74.5104 196.307 78.1859 195.825 81.7991C193.804 95.0149 176.637 102.913 164.578 98.8388C158.814 96.876 153.798 92.184 152.262 86.1704C150.39 78.7962 154.313 71.7113 156.7 64.9782C158.016 61.2098 158.671 57.241 158.634 53.2482C158.634 49.7449 158.424 46.2102 159.126 42.7303C159.633 40.2749 161.31 33.1117 170.365 30.2183C176.863 28.1617 183.438 31.7198 186.465 37.9132C189.99 45.1233 187.471 53.0762 190.287 60.3097Z" fill="#1C2024"/>
<path d="M159.328 61.3811C156.52 67.4103 152.831 73.5725 151.755 80.2273C150.858 85.7404 152.34 91.7071 157.129 94.9915C157.129 94.9915 157.215 94.9914 157.176 94.9289C152.145 91.0189 151.521 84.2702 152.932 78.46C154.375 72.509 157.854 67.3321 159.609 61.5062C159.618 61.4705 159.614 61.4328 159.598 61.3998C159.582 61.3667 159.555 61.3404 159.521 61.3255C159.488 61.3106 159.45 61.3079 159.415 61.3181C159.379 61.3283 159.349 61.3506 159.328 61.3811Z" fill="#1C2024"/>
<path d="M158.057 61.0369C155.935 68.943 149.438 75.1677 149.025 83.582C149.025 83.6837 149.173 83.7071 149.181 83.582C149.727 75.1833 156.981 69.2167 158.213 61.0369C158.213 61.0162 158.205 60.9963 158.19 60.9816C158.176 60.967 158.156 60.9587 158.135 60.9587C158.114 60.9587 158.094 60.967 158.08 60.9816C158.065 60.9963 158.057 61.0162 158.057 61.0369Z" fill="#1C2024"/>
<path d="M190.739 60.1768C189.377 57.2474 188.543 54.0996 188.274 50.8789C188.274 50.7146 187.986 50.699 187.978 50.8789C187.198 62.4837 200.458 71.2109 196.948 83.1911C196.948 83.2771 197.049 83.3319 197.08 83.2458C198.773 78.2958 197.455 73.3379 195.24 68.771C193.82 65.8542 192.112 63.1093 190.739 60.1768Z" fill="#1C2024"/>
<path d="M188.056 49.1585C188.056 48.9317 187.705 49.0021 187.72 49.2132C188.035 53.5577 189.435 57.753 191.792 61.4124C192.946 63.2266 194.358 64.8454 195.474 66.6753C196.698 68.685 197.642 70.8355 198.664 72.9313C198.667 72.9396 198.673 72.9468 198.681 72.9518C198.689 72.9568 198.698 72.9594 198.707 72.9594C198.716 72.9594 198.725 72.9568 198.732 72.9518C198.74 72.9468 198.746 72.9396 198.75 72.9313C197.416 68.9352 195.325 65.7525 192.931 62.3508C190.235 58.4289 188.56 53.8943 188.056 49.1585Z" fill="#1C2024"/>
<path d="M176.863 81.494C189.741 97.9629 205.341 115.425 216.58 116.254C227.282 117.036 246.907 87.0775 249.481 77.8577C250.362 74.675 226.861 65.9166 224.521 68.5597C220.129 73.5567 213.211 87.9612 211.549 87.9299C209.888 87.8986 194.038 78.2409 179.881 70.2723C171.278 65.4239 167.947 70.0768 176.863 81.494Z" fill="white"/>
<path d="M244.426 83.2302C244.426 83.2302 251.532 76.1922 255.963 71.3204C258.435 68.6225 262.265 63.6177 263.178 60.7946C264.535 56.5875 267.553 38.1166 263.1 37.2564C259.059 36.4744 258.482 52.7244 258.482 52.7244C258.482 52.7244 260.51 36.4119 255.487 36.4041C250.464 36.3962 252.242 54.8045 252.242 54.8045C252.242 54.8045 253.95 37.9993 248.763 38.8126C244.863 39.4226 245.526 56.1965 245.526 56.1965C245.526 56.1965 246.891 41.7373 242.835 42.1909C238.358 42.6992 238.007 58.214 238.007 58.214C234.323 59.2541 230.94 61.1604 228.139 63.7744C225.338 66.3885 223.199 69.6349 221.9 73.2441C221.471 74.3154 244.426 83.2302 244.426 83.2302Z" fill="white"/>
<path d="M258.217 57.643C260.627 45.741 258.17 39.1644 258.217 39.3521C258.927 43.7938 258.544 50.6989 258.404 52.6461C258.264 54.5932 258.303 55.7271 258.162 57.6509C258.139 57.69 258.209 57.6821 258.217 57.643Z" fill="#1C2024"/>
<path d="M251.189 58.0341C252.382 53.265 252.715 48.3206 252.172 43.4341C252.172 43.2464 252.07 43.309 252.063 43.4967C251.953 45.9522 251.353 55.5942 251.134 58.0341C251.127 58.081 251.181 58.081 251.189 58.0341Z" fill="#1C2024"/>
<path d="M245.16 58.8161C246.008 55.1018 246.153 51.2609 245.589 47.4927C245.589 47.3051 245.464 47.3989 245.456 47.5944C245.386 51.3558 245.355 54.3196 245.035 58.8005C245.027 58.8552 245.152 58.8865 245.16 58.8161Z" fill="#1C2024"/>
<path d="M220.449 72.5871L244.372 90.2056C244.372 90.2056 227.563 117.873 217.22 117.208C206.877 116.543 183.126 93.0443 173.977 77.0367C167.643 65.9636 174.562 66.6518 182.557 71.1874C190.552 75.723 211.198 86.8274 211.947 86.4598C212.696 86.0923 220.449 72.5871 220.449 72.5871Z" fill="#436FFF"/>
<g opacity="0.5">
<path d="M220.449 72.5871L244.372 90.2056C244.372 90.2056 227.563 117.873 217.22 117.208C206.877 116.543 183.126 93.0443 173.977 77.0367C167.643 65.9636 174.562 66.6518 182.557 71.1874C190.552 75.723 211.198 86.8274 211.947 86.4598C212.696 86.0923 220.449 72.5871 220.449 72.5871Z" fill="#7293FF"/>
</g>
<path d="M224.973 113.939C222.228 116.051 219.513 117.357 217.173 117.208C206.784 116.543 183.079 93.0443 173.93 77.0368C168.876 68.2002 172.261 66.8708 177.885 68.9744C191.784 81.9947 212.977 101.998 224.973 113.939Z" fill="white" fill-opacity="0.08"/>
<path d="M238.522 94.9367C235.09 92.536 221.362 82.1823 218.562 79.7503C218.367 79.5782 218.429 79.414 218.655 79.5626C229.131 86.5146 235.363 92.2701 238.615 94.796C238.693 94.8663 238.608 94.9993 238.522 94.9367Z" fill="#1C2024"/>
<path d="M144.391 119.085L198.75 117.841L192.939 101.724C194.15 99.5809 194.88 97.1976 195.075 94.7416C195.27 92.2856 194.927 89.8165 194.07 87.5076C192.361 82.9016 185.622 76.3798 181.488 72.2273C171.403 62.1083 163.962 67.7778 161.7 70.8276C153.057 82.4637 144.391 119.085 144.391 119.085Z" fill="#436FFF"/>
<path opacity="0.5" d="M144.391 119.085L198.75 117.841L192.939 101.724C194.15 99.5809 194.88 97.1976 195.075 94.7416C195.27 92.2856 194.927 89.8165 194.07 87.5076C192.361 82.9016 185.622 76.3798 181.488 72.2273C171.403 62.1083 163.962 67.7778 161.7 70.8276C153.057 82.4637 144.391 119.085 144.391 119.085Z" fill="#7293FF"/>
<path d="M177.237 101.372C179.519 101.057 181.821 100.913 184.125 100.942C185.271 100.942 186.41 101.052 187.549 101.161C188.118 101.216 188.688 101.247 189.257 101.279C189.853 101.328 190.452 101.307 191.043 101.216C191.09 101.216 191.106 101.279 191.043 101.294C190.501 101.448 189.948 101.563 189.39 101.638C188.846 101.702 188.298 101.723 187.752 101.701C186.589 101.701 185.412 101.607 184.265 101.576C181.925 101.513 179.585 101.451 177.245 101.576C177.144 101.568 177.128 101.38 177.237 101.372Z" fill="#1C2024"/>
<path d="M172.159 104.626C173.948 104 175.771 103.477 177.619 103.062C178.555 102.858 179.491 102.71 180.435 102.593C180.88 102.53 181.332 102.483 181.785 102.436C182.237 102.389 182.791 102.436 183.282 102.35C183.337 102.35 183.352 102.428 183.282 102.428C182.822 102.499 182.362 102.647 181.902 102.741L180.505 103.023C179.577 103.21 178.649 103.406 177.721 103.586C175.857 103.945 174 104.329 172.152 104.751C172.089 104.798 172.066 104.657 172.159 104.626Z" fill="#1C2024"/>
<path d="M159.172 75.8167C146.942 96.9776 130.25 140.723 126.951 147.675C124.704 152.367 149.29 164.808 150.351 161.383C151.684 156.996 167.144 105.243 168.291 80.0082C168.759 68.3173 163.088 69.0524 159.172 75.8167Z" fill="white"/>
<path d="M150.998 159.014C150.429 163.291 147.527 171.901 145.374 173.207C143.221 174.513 131.904 174.239 126.202 174.239C120.5 174.239 119.377 172.675 119.47 170.681C119.564 168.687 131.529 168.335 131.529 168.335C131.529 168.335 115.547 172.933 111.53 173.676C107.513 174.419 98.27 176.804 96.905 173.426C96.3044 171.925 98.8394 170.4 98.8394 170.4C98.8394 170.4 94.9394 171.534 94.3388 169.618C93.629 167.412 96.6788 166.2 96.6788 166.2C96.6788 166.2 94.253 166.685 94.1984 164.894C94.0736 160.875 109.276 158.904 109.276 158.904C109.276 158.904 97.6382 164.582 97.2638 161.305C96.7412 156.769 120.594 151.796 123.074 149.817C124.883 148.311 126.573 146.667 128.128 144.899L150.998 159.014Z" fill="white"/>
<path d="M119.556 171.674C119.518 171.396 119.546 171.112 119.64 170.846C119.734 170.581 119.89 170.342 120.094 170.149C120.507 169.773 120.979 169.466 121.491 169.242C122.545 168.789 123.639 168.433 124.759 168.179C127.005 167.608 129.306 167.201 131.599 166.615C129.236 166.576 126.877 166.839 124.579 167.397C123.405 167.671 122.274 168.105 121.218 168.687C120.675 168.989 120.2 169.399 119.821 169.891C119.627 170.14 119.501 170.435 119.455 170.748C119.408 171.06 119.443 171.379 119.556 171.674Z" fill="#1C2024"/>
<path d="M98.8394 170.4C100.485 169.993 102.108 169.532 103.722 169.062C105.337 168.593 106.951 168.093 108.558 167.608L113.371 166.099C114.978 165.59 116.584 165.09 118.207 164.605C116.522 164.794 114.852 165.095 113.207 165.504C111.561 165.88 109.939 166.349 108.324 166.842C106.71 167.334 105.111 167.882 103.527 168.476C101.944 169.07 100.376 169.68 98.8394 170.4Z" fill="#1C2024"/>
<path d="M114.346 160.609C112.796 160.707 111.255 160.918 109.736 161.243C108.211 161.549 106.703 161.938 105.22 162.408C103.737 162.871 102.282 163.417 100.86 164.042C99.4303 164.658 98.0463 165.374 96.7178 166.185C98.192 165.676 99.6194 165.106 101.086 164.621C102.552 164.136 103.995 163.628 105.462 163.174C106.928 162.721 108.402 162.275 109.876 161.845C111.351 161.415 112.848 161.016 114.346 160.609Z" fill="#1C2024"/>
<path d="M111.99 156.777C109.489 156.976 107.024 157.502 104.658 158.341C102.272 159.13 100.001 160.231 97.9034 161.618C100.243 160.773 102.583 159.89 104.923 159.1C107.263 158.31 109.58 157.552 111.99 156.777Z" fill="#1C2024"/>
<path d="M125.508 146.564L152.48 159.772C152.48 159.772 166.559 103.765 168.298 84.1371C170.038 64.5089 162.511 69.0211 157.316 78.2409C150.187 90.878 125.508 146.564 125.508 146.564Z" fill="#436FFF"/>
<path opacity="0.5" d="M125.508 146.564L152.48 159.772C152.48 159.772 166.559 103.765 168.298 84.1371C170.038 64.5089 162.511 69.0211 157.316 78.2409C150.187 90.878 125.508 146.564 125.508 146.564Z" fill="#7293FF"/>
<path d="M151.817 152.906C148.143 151.413 133.347 144.758 130.25 143.1C130.039 142.983 130.055 142.818 130.297 142.912C141.396 147.119 148.346 151.116 151.872 152.758C151.957 152.805 151.911 152.945 151.817 152.906Z" fill="#1C2024"/>
<path d="M161.84 121.071C162.238 118.178 162.737 115.308 163.26 112.469C163.782 109.631 164.336 106.737 164.921 103.867C165.506 100.997 166.122 98.1586 166.793 95.3199L167.799 91.0658C168.174 89.6504 168.509 88.235 168.907 86.8274C168.72 88.2819 168.47 89.713 168.244 91.1597L167.464 95.4685C166.957 98.3384 166.38 101.193 165.802 104.07C165.225 106.948 164.601 109.771 163.93 112.61C163.26 115.449 162.62 118.248 161.84 121.071Z" fill="#1C2024"/>
<path d="M167.401 94.2485C167.608 93.5039 167.899 92.7851 168.267 92.1059C168.616 91.4151 169.042 90.767 169.539 90.1743C169.331 90.9201 169.043 91.6411 168.681 92.3248C168.328 93.0122 167.898 93.6575 167.401 94.2485Z" fill="#1C2024"/>
<path d="M177.853 78.28C177.853 78.28 166.692 71.7503 161.473 72.7122L157.628 77.3182C157.628 77.3182 156.24 78.022 155.655 77.1618C154.204 75.0425 153.159 69.5373 157.371 65.2363C161.271 61.3263 170.256 60.6381 176.426 61.3263C182.354 61.9831 185.997 64.8844 184.795 68.8726C183.594 72.8608 177.853 78.28 177.853 78.28Z" fill="#436FFF"/>
<path opacity="0.5" d="M177.853 78.28C177.853 78.28 166.692 71.7503 161.473 72.7122L157.628 77.3182C157.628 77.3182 156.24 78.022 155.655 77.1618C154.204 75.0425 153.159 69.5373 157.371 65.2363C161.271 61.3263 170.256 60.6381 176.426 61.3263C182.354 61.9831 185.997 64.8844 184.795 68.8726C183.594 72.8608 177.853 78.28 177.853 78.28Z" fill="#7293FF"/>
<path d="M178.165 76.4425C178.165 76.4425 182.065 70.9685 182.354 68.0829C182.643 65.1973 176.676 63.3909 172.939 62.8748C167.16 62.0928 163.439 63.0077 160.771 66.4407C158.104 69.8737 178.165 76.4425 178.165 76.4425Z" fill="#436FFF"/>
<path d="M178.165 76.4424C178.165 76.4424 168.142 66.6361 159.913 66.7299L161.473 72.7122C161.473 72.7122 168.22 71.8286 177.853 78.2801L178.165 76.4424Z" fill="#436FFF"/>
<path opacity="0.5" d="M178.165 76.4424C178.165 76.4424 168.142 66.6361 159.913 66.7299L161.473 72.7122C161.473 72.7122 168.22 71.8286 177.853 78.2801L178.165 76.4424Z" fill="white"/>
<path d="M159.328 73.1502C160.781 72.8091 162.29 72.7878 163.751 73.0876C169.484 73.5725 175.81 77.3026 175.81 77.3026L177.658 78.5616L177.861 78.7024L178.048 78.5616C180.544 76.6848 182.728 72.8452 183.173 72.0945C181.561 74.2609 179.714 76.2411 177.666 77.9986H178.056L176.2 76.6926C175.568 76.2782 168.774 73.1189 163.806 72.6653C163.43 72.6198 163.053 72.5937 162.675 72.5871C162.292 72.5871 161.895 72.5871 161.536 72.6341C160.776 72.679 160.03 72.8536 159.328 73.1502Z" fill="#1C2024"/>
<path d="M157.644 77.3181C158.382 76.6394 159.072 75.9104 159.711 75.1364C160.356 74.3685 160.95 73.5587 161.489 72.7122C160.03 74.09 158.74 75.6361 157.644 77.3181Z" fill="#1C2024"/>
<path d="M175.88 75.1209C175.568 77.7151 175.482 80.3317 175.623 82.9409C175.708 84.7551 176.832 91.1988 178.828 90.8313C180.825 90.4637 177.268 86.4912 176.488 83.1051C175.708 79.719 176.434 77.1541 176.418 75.0974L175.88 75.1209Z" fill="#436FFF"/>
<path d="M180.825 74.6516C181.967 76.7309 182.927 78.9051 183.696 81.15C184.242 82.714 185.482 88.5556 183.696 88.97C181.909 89.3845 183.532 84.7629 183.064 81.6192C182.596 78.4756 181.083 76.5597 180.396 74.808L180.825 74.6516Z" fill="#436FFF"/>
<path d="M168.93 68.8178C169.156 69.7718 174.016 74.1119 178.392 73.8851C179.811 73.8148 179.491 67.8716 179.491 67.8716L179.616 67.2929L181.387 59.1992L171.886 53.1465L170.514 52.3645C170.514 52.3645 170.178 54.6088 169.78 57.4162C169.78 57.5413 169.741 57.6743 169.726 57.815C169.71 57.9558 169.671 58.12 169.656 58.2686C169.593 58.6831 169.531 59.1132 169.476 59.5433C169.422 59.9734 169.39 60.1767 169.351 60.5208C169.312 60.8648 169.281 61.1933 169.234 61.5374C168.966 63.9543 168.865 66.3869 168.93 68.8178Z" fill="white"/>
<path d="M169.78 57.3928C170.605 59.6594 171.913 61.719 173.611 63.4285C175.31 65.1381 177.359 66.4567 179.616 67.2929L181.387 59.1992L171.886 53.1465L170.514 52.3645C170.514 52.3645 170.178 54.5854 169.78 57.3928Z" fill="#1C2024"/>
<path d="M191.48 45.2953C195.435 59.2931 187.518 63.2813 184.507 64.0633C181.777 64.8453 172.378 67.1209 166.996 53.6158C161.614 40.1106 166.863 33.839 173.017 31.7198C179.172 29.6005 187.58 31.3053 191.48 45.2953Z" fill="white"/>
<path d="M187.159 44.7401C186.823 44.7401 186.504 44.7401 186.16 44.7401C185.807 44.7886 185.447 44.717 185.139 44.5368C185.05 44.4637 184.99 44.3625 184.967 44.25C184.944 44.1376 184.961 44.0207 185.014 43.919C185.142 43.7313 185.319 43.5816 185.524 43.4853C185.73 43.389 185.958 43.3498 186.184 43.3716C186.651 43.3423 187.112 43.4871 187.479 43.7782C187.557 43.8507 187.614 43.9445 187.64 44.0482C187.667 44.152 187.664 44.2614 187.63 44.3631C187.596 44.4648 187.534 44.5546 187.45 44.6215C187.366 44.6884 187.265 44.7296 187.159 44.7401Z" fill="#1C2024"/>
<path d="M177.198 46.6794C177.512 46.5599 177.819 46.4242 178.119 46.2727C178.461 46.1768 178.762 45.9707 178.977 45.6862C179.026 45.5831 179.04 45.4665 179.016 45.3546C178.992 45.2428 178.931 45.1421 178.844 45.0685C178.648 44.953 178.424 44.8921 178.197 44.8921C177.969 44.8921 177.746 44.953 177.549 45.0685C177.108 45.2286 176.743 45.5497 176.527 45.9678C176.496 46.0631 176.49 46.1653 176.512 46.2634C176.534 46.3616 176.581 46.452 176.65 46.525C176.719 46.5981 176.806 46.651 176.903 46.6782C176.999 46.7054 177.101 46.7058 177.198 46.6794Z" fill="#1C2024"/>
<path d="M179.866 48.9785C179.866 48.9785 179.803 49.0411 179.811 49.0802C180.069 50.042 180.201 51.1759 179.406 51.6999C179.406 51.6999 179.406 51.7624 179.406 51.7546C180.451 51.3558 180.256 49.8465 179.866 48.9785Z" fill="#1C2024"/>
<path d="M178.774 48.173C177.214 48.4154 177.799 51.559 179.257 51.301C180.716 51.0429 180.092 47.9697 178.774 48.173Z" fill="#1C2024"/>
<path d="M178.22 48.4545C177.978 48.6891 177.775 49.0566 177.44 49.1505C177.105 49.2443 176.715 48.9863 176.403 48.7204C176.403 48.7204 176.356 48.7204 176.356 48.7673C176.465 49.3694 176.816 49.9403 177.479 49.909C178.142 49.8777 178.399 49.26 178.431 48.6265C178.415 48.5092 178.282 48.3685 178.22 48.4545Z" fill="#1C2024"/>
<path d="M185.56 47.1331C185.56 47.1331 185.646 47.1331 185.653 47.2113C185.802 48.1888 186.137 49.2836 187.073 49.4478V49.5025C186.02 49.5494 185.544 48.0871 185.56 47.1331Z" fill="#1C2024"/>
<path d="M186.246 45.9599C187.806 45.5532 188.485 48.6656 187.026 49.0879C185.568 49.5102 184.951 46.304 186.246 45.9599Z" fill="#1C2024"/>
<path d="M186.94 46.0149C187.221 46.1243 187.533 46.3746 187.83 46.3277C188.126 46.2807 188.352 45.8741 188.493 45.5457C188.493 45.5457 188.539 45.5457 188.547 45.5457C188.662 45.8082 188.681 46.1031 188.599 46.378C188.518 46.6529 188.342 46.89 188.103 47.0471C187.603 47.2661 187.104 46.8438 186.831 46.2651C186.8 46.1634 186.8 45.9758 186.94 46.0149Z" fill="#1C2024"/>
<path d="M182.12 56.8611C182.385 57.0566 182.666 57.3381 183.025 57.3147C183.387 57.2548 183.733 57.1189 184.039 56.9158C184.039 56.9158 184.109 56.9158 184.093 56.9549C183.981 57.1677 183.814 57.3465 183.61 57.473C183.405 57.5994 183.171 57.669 182.931 57.6744C182.721 57.6487 182.523 57.5606 182.363 57.4212C182.203 57.2818 182.089 57.0976 182.034 56.8924C182.034 56.8611 182.12 56.8298 182.12 56.8611Z" fill="#1C2024"/>
<path d="M185.474 52.5601C185.474 52.5601 185.965 53.9677 186.106 54.6559C186.106 54.7185 185.965 54.781 185.731 54.8436C185.168 55.0688 184.554 55.1346 183.955 55.034C183.357 54.9333 182.798 54.67 182.338 54.2727C182.276 54.218 182.338 54.132 182.416 54.1554C183.403 54.5699 184.497 54.6549 185.536 54.3978C185.536 54.2023 184.608 52.0518 184.71 51.9893C185.248 51.9158 185.794 51.9158 186.332 51.9893C185.38 49.0255 183.992 46.2416 183.072 43.2778C183.072 43.1683 183.189 43.1057 183.235 43.1996C184.84 46.1369 186.147 49.2283 187.135 52.4272C187.276 52.8104 185.77 52.5601 185.474 52.5601Z" fill="#1C2024"/>
<path d="M185.614 54.5619C185.351 55.1973 184.929 55.7546 184.39 56.1806C184.088 56.4065 183.721 56.5297 183.345 56.5325C182.565 56.5325 182.323 55.8365 182.299 55.2031C182.293 54.8614 182.327 54.5202 182.401 54.1865C183.404 54.6546 184.531 54.7862 185.614 54.5619Z" fill="#1C2024"/>
<path d="M184.39 56.1808C184.088 56.4067 183.721 56.5299 183.345 56.5327C182.565 56.5327 182.323 55.8367 182.299 55.2033C182.707 55.1089 183.134 55.1538 183.513 55.3309C183.891 55.5081 184.2 55.8073 184.39 56.1808Z" fill="#FF9ABB"/>
<path d="M168.33 54.2257C171.286 53.3968 169.617 46.5621 169.617 46.5621C169.617 46.5621 171.177 45.436 172.347 41.4791C172.347 41.4791 171.746 44.7948 170.1 46.5308C169.827 46.828 179.725 43.09 178.618 35.0276C178.618 35.0276 182.728 41.1116 190.411 41.5417C190.653 41.5417 187.876 34.707 185.942 33.4558C184.831 32.7229 183.63 32.1368 182.37 31.7119C178.705 30.2394 174.612 30.2646 170.966 31.7823C164.96 34.3551 162.62 42.0187 162.854 44.8495C163.33 50.4017 166.926 54.6167 168.33 54.2257Z" fill="#1C2024"/>
<path d="M170.467 46.6169C175.927 44.8965 179.429 40.1732 178.384 34.3707C178.384 34.3411 178.394 34.3123 178.412 34.2889C178.43 34.2656 178.456 34.249 178.484 34.2418C178.513 34.2346 178.543 34.2372 178.57 34.2492C178.597 34.2613 178.619 34.282 178.633 34.3082C180.911 39.8682 175.81 45.7488 170.443 46.7263C170.319 46.7498 170.342 46.656 170.467 46.6169Z" fill="#1C2024"/>
<path d="M178.47 34.8086H178.524C180.724 37.3501 183.532 42.1438 187.619 40.8378C187.63 40.8337 187.641 40.8318 187.653 40.8321C187.664 40.8324 187.676 40.835 187.686 40.8397C187.697 40.8445 187.706 40.8512 187.714 40.8596C187.722 40.868 187.728 40.8779 187.732 40.8886C187.736 40.8994 187.738 40.9109 187.738 40.9224C187.737 40.934 187.735 40.9453 187.73 40.9559C187.725 40.9664 187.719 40.9759 187.71 40.9838C187.702 40.9917 187.692 40.9979 187.681 41.002C183.875 42.5817 179.725 38.007 178.47 34.8086Z" fill="#1C2024"/>
<path d="M169.64 52.787C169.64 52.787 165.678 48.9239 163.868 50.441C162.058 51.958 165.639 57.956 168.181 58.3783C168.501 58.4527 168.832 58.4622 169.155 58.406C169.478 58.3498 169.786 58.2292 170.062 58.0512C170.338 57.8733 170.575 57.6417 170.76 57.3701C170.945 57.0985 171.073 56.7925 171.138 56.4702L169.64 52.787Z" fill="white"/>
<path d="M164.913 52.1222C164.874 52.1222 164.913 52.1848 164.913 52.1848C166.707 52.5445 167.877 53.9208 168.813 55.4066C168.687 55.2567 168.529 55.1363 168.351 55.0536C168.173 54.971 167.98 54.9282 167.784 54.9282C167.588 54.9282 167.394 54.971 167.216 55.0536C167.038 55.1363 166.881 55.2567 166.754 55.4066C166.754 55.4066 166.754 55.5083 166.816 55.4848C167.092 55.342 167.405 55.2851 167.713 55.3213C168.022 55.3576 168.312 55.4853 168.548 55.6881C168.932 56.0433 169.28 56.4363 169.585 56.8611C169.687 56.9941 169.944 56.8611 169.851 56.7047C169.445 54.5542 167.23 51.8954 164.913 52.1222Z" fill="#1C2024"/>
</g>
<defs>
<clipPath id="clip0_27_1457">
<rect width="358" height="358" fill="white"/>
</clipPath>
</defs>
</svg>
