<svg width="61" height="17" viewBox="0 0 61 17" fill="none" xmlns="http://www.w3.org/2000/svg">
<path d="M0.769531 6.15137C0.769531 2.82499 3.4661 0.128418 6.79248 0.128418V0.128418C10.1189 0.128418 12.8154 2.82498 12.8154 6.15137V15.871H0.769531V6.15137Z" fill="#8C58EC"/>
<path d="M57.5449 12.2221V6.22211H58.8649V7.29011C58.9769 6.95411 59.1809 6.68211 59.4769 6.47411C59.7809 6.26611 60.1049 6.16211 60.4489 6.16211C60.6569 6.16211 60.8289 6.17811 60.9649 6.21011V7.56611C60.7729 7.49411 60.5529 7.45811 60.3049 7.45811C59.9049 7.45811 59.5649 7.62211 59.2849 7.95011C59.0049 8.27011 58.8649 8.71811 58.8649 9.29411V12.2221H57.5449Z" fill="#000001"/>
<path d="M53.2961 12.3421C52.3841 12.3421 51.6321 12.0501 51.0401 11.4661C50.4561 10.8821 50.1641 10.1341 50.1641 9.22205C50.1641 8.33405 50.4601 7.59405 51.0521 7.00205C51.6441 6.40205 52.3921 6.10205 53.2961 6.10205C54.1281 6.10205 54.8161 6.36605 55.3601 6.89405C55.9121 7.42205 56.1881 8.15005 56.1881 9.07805C56.1881 9.23805 56.1841 9.38205 56.1761 9.51005H51.4601C51.4921 9.99805 51.6801 10.3941 52.0241 10.6981C52.3681 10.9941 52.7961 11.1421 53.3081 11.1421C54.0761 11.1421 54.6481 10.8381 55.0241 10.2301L56.0321 10.9501C55.4561 11.8781 54.5441 12.3421 53.2961 12.3421ZM51.5201 8.55005H54.8561C54.7841 8.13405 54.5961 7.81005 54.2921 7.57805C53.9961 7.33805 53.6481 7.21805 53.2481 7.21805C52.8321 7.21805 52.4601 7.33405 52.1321 7.56605C51.8121 7.79805 51.6081 8.12605 51.5201 8.55005Z" fill="#000001"/>
<path d="M44.5355 10.4581C44.8795 10.8021 45.3035 10.9741 45.8075 10.9741C46.3115 10.9741 46.7355 10.8021 47.0795 10.4581C47.4235 10.1061 47.5955 9.66605 47.5955 9.13805C47.5955 8.61005 47.4235 8.17405 47.0795 7.83005C46.7355 7.47805 46.3115 7.30205 45.8075 7.30205C45.3035 7.30205 44.8795 7.47805 44.5355 7.83005C44.1915 8.17405 44.0195 8.61005 44.0195 9.13805C44.0195 9.66605 44.1915 10.1061 44.5355 10.4581ZM45.6875 14.8501C45.1035 14.8501 44.5635 14.7501 44.0675 14.5501C43.5715 14.3581 43.1755 14.0901 42.8795 13.7461L43.6835 12.7981C44.2195 13.3821 44.8835 13.6741 45.6755 13.6741C46.1955 13.6741 46.6275 13.5061 46.9715 13.1701C47.3155 12.8421 47.4875 12.3861 47.4875 11.8021V11.2501C47.2955 11.5221 47.0275 11.7461 46.6835 11.9221C46.3395 12.0981 45.9675 12.1861 45.5675 12.1861C44.7595 12.1861 44.0755 11.8941 43.5155 11.3101C42.9635 10.7181 42.6875 9.99405 42.6875 9.13805C42.6875 8.29005 42.9635 7.57405 43.5155 6.99005C44.0755 6.39805 44.7595 6.10205 45.5675 6.10205C45.9675 6.10205 46.3395 6.19005 46.6835 6.36605C47.0275 6.53405 47.2955 6.75405 47.4875 7.02605V6.22205H48.8075V11.8141C48.8075 12.8141 48.5195 13.5701 47.9435 14.0821C47.3755 14.5941 46.6235 14.8501 45.6875 14.8501Z" fill="#000001"/>
<path d="M37.0589 10.4581C37.4029 10.8021 37.8269 10.9741 38.3309 10.9741C38.8349 10.9741 39.2589 10.8021 39.6029 10.4581C39.9469 10.1061 40.1189 9.66605 40.1189 9.13805C40.1189 8.61005 39.9469 8.17405 39.6029 7.83005C39.2589 7.47805 38.8349 7.30205 38.3309 7.30205C37.8269 7.30205 37.4029 7.47805 37.0589 7.83005C36.7149 8.17405 36.5429 8.61005 36.5429 9.13805C36.5429 9.66605 36.7149 10.1061 37.0589 10.4581ZM38.2109 14.8501C37.6269 14.8501 37.0869 14.7501 36.5909 14.5501C36.0949 14.3581 35.6989 14.0901 35.4029 13.7461L36.2069 12.7981C36.7429 13.3821 37.4069 13.6741 38.1989 13.6741C38.7189 13.6741 39.1509 13.5061 39.4949 13.1701C39.8389 12.8421 40.0109 12.3861 40.0109 11.8021V11.2501C39.8189 11.5221 39.5509 11.7461 39.2069 11.9221C38.8629 12.0981 38.4909 12.1861 38.0909 12.1861C37.2829 12.1861 36.5989 11.8941 36.0389 11.3101C35.4869 10.7181 35.2109 9.99405 35.2109 9.13805C35.2109 8.29005 35.4869 7.57405 36.0389 6.99005C36.5989 6.39805 37.2829 6.10205 38.0909 6.10205C38.4909 6.10205 38.8629 6.19005 39.2069 6.36605C39.5509 6.53405 39.8189 6.75405 40.0109 7.02605V6.22205H41.3309V11.8141C41.3309 12.8141 41.0429 13.5701 40.4669 14.0821C39.8989 14.5941 39.1469 14.8501 38.2109 14.8501Z" fill="#000001"/>
<path d="M28.5059 12.2221V6.22205H29.8259V7.03805C30.2019 6.41405 30.8099 6.10205 31.6499 6.10205C32.3459 6.10205 32.9019 6.33005 33.3179 6.78605C33.7339 7.24205 33.9419 7.85005 33.9419 8.61005V12.2221H32.6219V8.82605C32.6219 8.34605 32.5099 7.97405 32.2859 7.71005C32.0619 7.43805 31.7579 7.30205 31.3739 7.30205C30.9179 7.30205 30.5459 7.47405 30.2579 7.81805C29.9699 8.16205 29.8259 8.64605 29.8259 9.27005V12.2221H28.5059Z" fill="#000001"/>
<path d="M26.0726 4.91439C25.8326 4.91439 25.6246 4.83039 25.4486 4.66239C25.2726 4.48639 25.1846 4.27439 25.1846 4.02639C25.1846 3.78639 25.2726 3.58239 25.4486 3.41439C25.6246 3.23839 25.8326 3.15039 26.0726 3.15039C26.3206 3.15039 26.5286 3.23839 26.6966 3.41439C26.8646 3.58239 26.9486 3.78639 26.9486 4.02639C26.9486 4.27439 26.8646 4.48639 26.6966 4.66239C26.5286 4.83039 26.3206 4.91439 26.0726 4.91439ZM25.4126 12.2224V6.22239H26.7326V12.2224H25.4126Z" fill="#000001"/>
<path d="M22.3184 12.2222V3.22217H23.6384V12.2222H22.3184Z" fill="#000001"/>
<path d="M16.0996 12.2221V3.70215H21.1636V5.04615H17.5036V7.24215H20.3836V8.57415H17.5036V12.2221H16.0996Z" fill="#000001"/>
</svg>
