<svg width="406" height="306" viewBox="0 0 406 306" fill="none" xmlns="http://www.w3.org/2000/svg">
<path opacity="0.45" d="M210.663 272.232C302.978 272.232 377.813 267.061 377.813 260.682C377.813 254.302 302.978 249.131 210.663 249.131C118.349 249.131 43.513 254.302 43.513 260.682C43.513 267.061 118.349 272.232 210.663 272.232Z" fill="#313131"/>
<path d="M113.558 183.369L104.545 212.114C103.331 215.991 101.33 219.575 98.6664 222.642C96.0029 225.709 92.7345 228.192 89.0662 229.937L75.8712 236.22L76.399 240.118L96.1509 235.855C100.784 234.483 105.081 232.161 108.766 229.036C112.452 225.911 115.446 222.053 117.557 217.707L131.503 188.992L113.558 183.369Z" fill="#F4A28C"/>
<path opacity="0.19" d="M304.723 249.09C304.723 249.09 295.659 246.613 293.69 238.179C293.69 238.179 307.728 235.347 308.134 249.841L304.723 249.09Z" fill="#0079EA"/>
<path opacity="0.51" d="M305.84 248.196C305.84 248.196 299.506 238.188 305.079 228.83C305.079 228.83 315.756 235.61 311.006 248.217L305.84 248.196Z" fill="#0079EA"/>
<path d="M307.464 248.197C307.464 248.197 310.813 237.63 320.923 235.631C320.923 235.631 322.821 242.492 314.376 248.227L307.464 248.197Z" fill="#0079EA"/>
<path d="M300.897 247.963L302.734 260.529L314.305 260.579L316.01 248.024L300.897 247.963Z" fill="#303133"/>
<path d="M285.215 95.166H185.674V260.743H285.215V95.166Z" fill="#303133"/>
<path d="M276.648 30.3218L178.426 46.4766L184.637 84.2348L282.858 68.08L276.648 30.3218Z" fill="#303133"/>
<path d="M255.731 23.3674L197.108 32.8418L198.877 43.7846L257.5 34.3102L255.731 23.3674Z" fill="#0079EA"/>
<path opacity="0.07" d="M267.392 144.484H203.315C198.107 144.484 193.885 148.706 193.885 153.914V161.536C193.885 166.744 198.107 170.966 203.315 170.966H267.392C272.599 170.966 276.821 166.744 276.821 161.536V153.914C276.821 148.706 272.599 144.484 267.392 144.484Z" fill="white"/>
<path d="M261.697 164.845C265.61 164.845 268.782 161.673 268.782 157.76C268.782 153.848 265.61 150.676 261.697 150.676C257.785 150.676 254.613 153.848 254.613 157.76C254.613 161.673 257.785 164.845 261.697 164.845Z" fill="#0079EA"/>
<path d="M244.128 154.391H202.381V161.12H244.128V154.391Z" fill="white"/>
<path opacity="0.07" d="M267.392 105.914H203.315C198.107 105.914 193.885 110.136 193.885 115.343V122.966C193.885 128.174 198.107 132.395 203.315 132.395H267.392C272.599 132.395 276.821 128.174 276.821 122.966V115.343C276.821 110.136 272.599 105.914 267.392 105.914Z" fill="white"/>
<path d="M261.697 126.275C265.61 126.275 268.782 123.103 268.782 119.19C268.782 115.277 265.61 112.105 261.697 112.105C257.785 112.105 254.613 115.277 254.613 119.19C254.613 123.103 257.785 126.275 261.697 126.275Z" fill="#0079EA"/>
<path d="M244.128 115.82H202.381V122.55H244.128V115.82Z" fill="white"/>
<path opacity="0.07" d="M260.765 39.7781L197.329 50.0304C192.174 50.8636 188.67 55.7185 189.503 60.8741L190.723 68.4205C191.556 73.5762 196.411 77.0801 201.566 76.2469L265.003 65.9946C270.158 65.1614 273.662 60.3065 272.829 55.1508L271.609 47.6044C270.776 42.4488 265.921 38.9448 260.765 39.7781Z" fill="white"/>
<path d="M256.551 60.1479C260.464 60.1479 263.636 56.976 263.636 53.0632C263.636 49.1504 260.464 45.9785 256.551 45.9785C252.639 45.9785 249.467 49.1504 249.467 53.0632C249.467 56.976 252.639 60.1479 256.551 60.1479Z" fill="#0079EA"/>
<path d="M238.663 52.5822L197.469 59.3574L198.561 65.9977L239.755 59.2224L238.663 52.5822Z" fill="white"/>
<path opacity="0.07" d="M267.392 184.729H203.315C198.107 184.729 193.885 188.95 193.885 194.158V201.781C193.885 206.988 198.107 211.21 203.315 211.21H267.392C272.599 211.21 276.821 206.988 276.821 201.781V194.158C276.821 188.95 272.599 184.729 267.392 184.729Z" fill="white"/>
<path d="M261.697 205.089C265.61 205.089 268.782 201.917 268.782 198.005C268.782 194.092 265.61 190.92 261.697 190.92C257.785 190.92 254.613 194.092 254.613 198.005C254.613 201.917 257.785 205.089 261.697 205.089Z" fill="#0079EA"/>
<path d="M244.128 194.635H202.381V201.364H244.128V194.635Z" fill="white"/>
<path opacity="0.07" d="M267.392 224.975H203.315C198.107 224.975 193.885 229.196 193.885 234.404V242.027C193.885 247.234 198.107 251.456 203.315 251.456H267.392C272.599 251.456 276.821 247.234 276.821 242.027V234.404C276.821 229.196 272.599 224.975 267.392 224.975Z" fill="white"/>
<path d="M261.697 245.335C265.61 245.335 268.782 242.163 268.782 238.251C268.782 234.338 265.61 231.166 261.697 231.166C257.785 231.166 254.613 234.338 254.613 238.251C254.613 242.163 257.785 245.335 261.697 245.335Z" fill="#0079EA"/>
<path d="M244.128 234.881H202.381V241.61H244.128V234.881Z" fill="white"/>
<path d="M143.338 191.479L147.561 253.038L143.633 254.398L128.002 196.807L143.338 191.479Z" fill="#F4A28C"/>
<path d="M148.363 254.094C148.363 254.094 149.215 257.738 151.966 258.875C154.716 260.011 153.326 263.95 149.185 261.564C147.897 260.815 146.675 259.96 145.531 259.007C144.455 258.164 143.178 257.619 141.826 257.423C141.573 257.378 141.341 257.256 141.16 257.075C140.978 256.893 140.857 256.661 140.811 256.408C140.253 254.378 144.82 252.49 144.82 252.49L148.363 254.094Z" fill="#0079EA"/>
<path d="M76.3889 240.117C76.3889 240.117 73.6078 242.249 73.689 245.03C73.7702 247.811 69.8523 248.146 70.3294 243.69C70.4727 242.318 70.7307 240.96 71.1008 239.63C71.4123 238.391 71.3878 237.091 71.0297 235.865C70.9798 235.625 71.0034 235.375 71.0976 235.149C71.1918 234.922 71.3521 234.73 71.5575 234.596C73.0699 233.358 76.4498 236.524 76.4498 236.524L76.3889 240.117Z" fill="#0079EA"/>
<path d="M119.78 102.251L121.242 108.168L116.441 110.706L115.598 100.576L119.78 102.251Z" fill="#F4A28C"/>
<path d="M114.472 94.871C114.755 94.3411 115.166 93.8902 115.667 93.5591C116.169 93.228 116.745 93.0271 117.343 92.9747C117.942 92.9223 118.544 93.02 119.095 93.259C119.647 93.4979 120.13 93.8706 120.501 94.3432C122.277 96.5762 124.358 100.068 121.516 101.651C117.243 104.077 113.924 98.6062 113.924 98.6062C113.741 97.3344 113.931 96.0368 114.472 94.871Z" fill="#F4A28C"/>
<path d="M65.391 132.254L86.8106 159.699L106.198 144.568L84.7789 117.123L65.391 132.254Z" fill="#0079EA"/>
<path d="M94.7604 120.814C94.7604 120.814 74.095 153.132 78.226 157.892C91.3601 172.996 120.521 138.973 120.521 138.973L94.7604 120.814Z" fill="#F4A28C"/>
<path d="M141.511 115.993C135.581 111.663 128.458 109.267 121.115 109.135C113.773 109.002 106.568 111.139 100.485 115.252C95.075 118.937 90.9034 124.387 92.8116 132.406C97.2878 151.082 111.599 163.394 112.097 179.827L145.977 177.553V156.401C145.969 154.4 146.374 152.419 147.169 150.583C147.964 148.747 149.131 147.096 150.596 145.733C153.549 143.013 156.483 138.577 154.473 132.477C152.646 127.067 148.028 120.774 141.511 115.993Z" fill="#0079EA"/>
<path d="M117.161 98.6472C117.161 98.6472 116.146 97.6931 115.619 98.8908C115.091 100.089 116.837 100.829 117.435 100.251C118.034 99.6724 117.161 98.6472 117.161 98.6472Z" fill="#F4A28C"/>
<path opacity="0.08" d="M124.743 124.794C124.743 124.794 117.425 138.791 125.921 152.432C134.416 166.074 118.308 179.411 118.308 179.411L145.937 177.553V165.495C145.937 165.495 144.231 150.27 149.499 146.809C149.499 146.809 158.513 140.313 153.661 130.478C148.809 120.642 124.743 124.794 124.743 124.794Z" fill="black"/>
<path d="M110.635 116.461C111.285 113.933 114.299 109.356 110.046 101.043C109.153 99.2868 108.443 95.176 110.138 92.334C114.198 85.5234 120.673 87.8477 119.902 91.6641C119.131 95.4805 118.593 97.2974 118.593 97.2974C118.593 97.2974 130.894 106.118 129.098 112.624C127.504 118.359 107.895 126.956 110.635 116.461Z" fill="#303133"/>
<path d="M110.564 171.178H145.937L151.57 220.121L99.0945 217.756L110.564 171.178Z" fill="#303133"/>
<path d="M126.144 134.73C125.308 133.714 124.683 132.541 124.303 131.282C123.924 130.022 123.799 128.699 123.935 127.39C124.071 126.082 124.465 124.813 125.095 123.658C125.726 122.503 126.579 121.484 127.606 120.662C129.652 119.064 131.816 117.626 134.082 116.358C147.571 108.634 169.992 91.5617 179.432 68.0137C179.432 68.0137 181.644 59.4065 188.211 59.711C194.778 60.0155 192.515 68.1761 185.978 68.0949C185.978 68.0949 180.629 119.19 141.379 138.201C138.819 139.41 135.928 139.725 133.167 139.096C130.407 138.466 127.937 136.929 126.154 134.73H126.144Z" fill="#F4A28C"/>
</svg>
