<svg width="759" height="236" viewBox="0 0 759 236" fill="none" xmlns="http://www.w3.org/2000/svg">
<path d="M53.0734 185.585C37.9791 185.585 25.3194 181.201 15.0943 172.433C5.03142 163.503 0 150.92 0 134.683H28.2409C28.2409 142.314 30.6755 148.322 35.5446 152.706C40.4137 156.927 46.2566 159.038 53.0734 159.038C60.0525 159.038 65.8143 156.846 70.3588 152.462C75.0656 148.078 77.419 141.503 77.419 132.735V9.74201H105.903V135.17C105.903 152.056 100.872 164.721 90.8091 173.164C80.9085 181.445 68.33 185.585 53.0734 185.585Z" fill="white"/>
<path d="M241.592 166.832C229.419 179.009 214.325 185.098 196.309 185.098C178.293 185.098 163.118 179.009 150.783 166.832C138.61 154.492 132.524 139.473 132.524 121.775C132.524 104.077 138.61 89.1393 150.783 76.9618C163.118 64.6219 178.293 58.452 196.309 58.452C214.325 58.452 229.419 64.6219 241.592 76.9618C253.927 89.1393 260.095 104.077 260.095 121.775C260.095 139.473 253.927 154.492 241.592 166.832ZM196.309 160.256C206.859 160.256 215.542 156.603 222.359 149.296C229.338 141.827 232.828 132.654 232.828 121.775C232.828 110.896 229.338 101.804 222.359 94.4974C215.542 87.0285 206.859 83.2941 196.309 83.2941C185.597 83.2941 176.752 87.0285 169.772 94.4974C162.956 101.804 159.547 110.896 159.547 121.775C159.547 132.654 162.956 141.827 169.772 149.296C176.752 156.603 185.597 160.256 196.309 160.256Z" fill="white"/>
<path d="M340.833 185.098C322.655 185.098 307.723 179.172 296.037 167.319C284.351 155.304 278.508 140.122 278.508 121.775C278.508 103.428 284.27 88.3275 295.793 76.4747C307.317 64.4596 322.411 58.452 341.076 58.452C359.903 58.452 375.079 65.0279 386.602 78.1796C398.126 91.1689 403.238 107.893 401.94 128.351H305.045C305.369 137.768 308.94 145.643 315.757 151.975C322.573 158.308 331.257 161.474 341.806 161.474C356.738 161.474 366.964 155.791 372.482 144.425H400.479C396.746 156.278 389.605 166.02 379.055 173.651C368.505 181.282 355.765 185.098 340.833 185.098ZM340.346 80.8586C331.581 80.8586 324.034 83.3753 317.704 88.4087C311.537 93.2797 307.56 100.261 305.775 109.354H373.212C371.265 99.9367 367.288 92.8738 361.283 88.1651C355.278 83.2941 348.299 80.8586 340.346 80.8586Z" fill="white"/>
<path d="M484.462 236C467.907 236 454.274 231.941 443.562 223.822C433.012 215.704 426.925 205.15 425.302 192.161H451.596C456.302 206.125 467.501 213.106 485.192 213.106C494.768 213.106 502.64 209.94 508.808 203.608C515.138 197.438 518.302 188.67 518.302 177.304V162.935C514.407 168.455 508.97 173.002 501.991 176.574C495.012 180.146 487.465 181.932 479.35 181.932C462.957 181.932 449.08 176.006 437.719 164.153C426.52 152.138 420.92 137.443 420.92 120.07C420.92 102.859 426.52 88.3275 437.719 76.4747C449.08 64.4596 462.957 58.452 479.35 58.452C487.465 58.452 495.012 60.238 501.991 63.8101C508.97 67.2198 514.407 71.6849 518.302 77.2054V60.8875H545.083V175.112C545.083 195.246 539.321 210.427 527.797 220.656C516.436 230.885 501.991 236 484.462 236ZM458.412 146.861C465.391 153.842 473.994 157.333 484.219 157.333C494.444 157.333 503.046 153.842 510.025 146.861C517.004 139.717 520.494 130.786 520.494 120.07C520.494 109.354 517.004 100.505 510.025 93.5232C503.046 86.3791 494.444 82.807 484.219 82.807C473.994 82.807 465.391 86.3791 458.412 93.5232C451.433 100.505 447.944 109.354 447.944 120.07C447.944 130.786 451.433 139.717 458.412 146.861Z" fill="white"/>
<path d="M581.126 182.663V0H607.906V182.663H581.126Z" fill="white"/>
<path d="M697.695 185.098C679.517 185.098 664.585 179.172 652.899 167.319C641.214 155.304 635.371 140.122 635.371 121.775C635.371 103.428 641.132 88.3275 652.656 76.4747C664.18 64.4596 679.274 58.452 697.939 58.452C716.766 58.452 731.942 65.0279 743.465 78.1796C754.989 91.1689 760.101 107.893 758.803 128.351H661.907C662.232 137.768 665.803 145.643 672.619 151.975C679.436 158.308 688.119 161.474 698.669 161.474C713.601 161.474 723.826 155.791 729.345 144.425H757.342C753.609 156.278 746.468 166.02 735.918 173.651C725.368 181.282 712.627 185.098 697.695 185.098ZM697.208 80.8586C688.444 80.8586 680.897 83.3753 674.567 88.4087C668.4 93.2797 664.423 100.261 662.638 109.354H730.075C728.127 99.9367 724.151 92.8738 718.146 88.1651C712.14 83.2941 705.161 80.8586 697.208 80.8586Z" fill="white"/>
</svg>
