<svg width="800" height="800" viewBox="0 0 800 800" fill="none" xmlns="http://www.w3.org/2000/svg">
<path d="M388.482 192.526C379.95 146.013 401.943 98.1464 428.429 65.8881C457.619 30.2951 507.712 2.99961 550.52 0C557.752 48.7656 537.85 96.2787 511.654 129.887C483.552 165.991 435.236 193.99 388.482 192.526ZM639.582 361.066C652.828 324.11 679.07 290.859 719.781 268.424C678.641 217.087 620.88 187.282 566.372 187.282C494.254 187.282 463.762 221.641 413.67 221.641C362.069 221.641 322.923 187.282 260.455 187.282C199.2 187.282 133.996 224.617 92.6431 288.381C77.4384 311.95 67.1385 341.231 61.5213 373.844C45.9346 465.334 69.2176 584.501 138.67 690.313C172.44 741.657 217.451 799.49 276.253 799.994C328.635 800.506 343.496 766.504 414.408 766.153C485.425 765.749 498.884 800.347 551.194 799.847C610.013 799.351 657.505 735.348 691.274 684.01C715.319 647.169 724.412 628.561 743.109 586.909C648.038 551.056 608.936 446.295 639.582 361.066Z" fill="#C1C1C1"/>
</svg>
