<svg width="284" height="50" viewBox="0 0 284 50" fill="none" xmlns="http://www.w3.org/2000/svg">
<g clip-path="url(#clip0_94_2)">
<path d="M41.5143 32.0434C41.5143 43.0823 34.7213 47.9263 29.4721 49.5598C28.3527 49.908 27.6169 48.6032 28.2866 47.6408C30.5709 44.3581 33.2115 39.3497 33.2115 34.638C33.2115 29.5769 28.9456 23.6017 25.6146 19.9163C24.8531 19.0738 23.5249 19.6311 23.4834 20.7663C23.3456 24.5264 22.7522 29.5572 20.1936 33.5C19.7818 34.1347 18.9077 34.1871 18.4383 33.5937C17.6389 32.5826 16.8395 31.3338 16.0401 30.347C15.6094 29.8156 14.8311 29.8084 14.3344 30.2785C12.3979 32.1121 9.68667 34.9717 9.68667 38.53C9.68667 40.9428 10.6214 43.4723 11.6761 45.5073C12.2563 46.6269 11.2246 47.9745 10.108 47.3886C5.48267 44.9614 0 40.0442 0 32.0434C0 23.8796 11.1837 12.5701 15.4538 1.88561C16.1275 0.199632 18.2043 -0.592617 19.6485 0.507617C28.3956 7.17082 41.5143 20.0512 41.5143 32.0434Z" fill="#5e90d4"/>
<path d="M253.354 43.1588V7.61621H266.23C277.057 7.61621 283.507 14.0942 283.507 25.2767V25.3259C283.507 36.5577 277.107 43.1588 266.23 43.1588H253.354ZM259.02 38.3804H265.698C273.439 38.3804 277.714 33.7744 277.714 25.3752V25.3259C277.714 16.976 273.389 12.37 265.698 12.37H259.02V38.3804Z" fill="#6898d8" fill-opacity="0.7"/>
<path d="M232.652 43.7501C224.861 43.7501 219.776 39.612 219.27 33.8237L219.245 33.5035H224.684L224.709 33.7745C225.063 36.9273 228.124 39.144 232.652 39.144C237.105 39.144 240.115 36.7302 240.115 33.2819V33.2326C240.115 29.2177 237.13 26.9763 232.248 26.9763H227.821V22.6905H232.096C236.27 22.6905 239.103 20.3013 239.103 17.0007V16.9515C239.103 13.5277 236.725 11.5326 232.602 11.5326C228.554 11.5326 225.721 13.6016 225.367 16.9022L225.342 17.1239H220.029L220.055 16.8776C220.611 10.9415 225.468 7.02515 232.602 7.02515C239.862 7.02515 244.618 10.7691 244.618 16.2372V16.2864C244.618 20.6954 241.38 23.6511 236.928 24.5625V24.6856C242.291 25.1536 245.883 28.3064 245.883 33.2819V33.3311C245.883 39.415 240.393 43.7501 232.652 43.7501Z" fill="#6898d8" fill-opacity="0.7"/>
<path d="M201.474 43.7007C193.177 43.7007 188.143 38.4543 188.143 30.0058V29.9812C188.143 21.582 193.227 16.2124 201.171 16.2124C209.114 16.2124 214.097 21.4588 214.097 29.4393V31.6561H195.428C195.504 35.868 197.857 38.3311 201.626 38.3311C204.661 38.3311 206.508 36.7054 207.039 35.2276L207.09 35.0798H213.87L213.794 35.3507C212.959 39.2424 209.215 43.7007 201.474 43.7007ZM201.297 21.582C198.261 21.582 195.985 23.5525 195.504 27.124H207.014C206.559 23.4786 204.358 21.582 201.297 21.582Z" fill="white"/>
<path d="M175.207 43.1588V7.61621H182.594V43.1588H175.207Z" fill="white"/>
<path d="M152.655 43.7007C145.825 43.7007 141.626 38.5282 141.626 29.9566V29.9319C141.626 21.3357 145.825 16.2125 152.655 16.2125C156.501 16.2125 159.536 18.1337 161.003 21.3357H161.155V7.61621H168.542V43.1588H161.155V38.6513H161.003C159.562 41.7795 156.576 43.7007 152.655 43.7007ZM155.135 37.74C158.727 37.74 161.181 34.735 161.181 29.9566V29.9319C161.181 25.1782 158.701 22.1732 155.135 22.1732C151.466 22.1732 149.139 25.1043 149.139 29.9319V29.9566C149.139 34.7596 151.441 37.74 155.135 37.74Z" fill="white"/>
<path d="M111.206 43.1588V16.7543H118.593V21.0894H118.745C120.136 18.0597 122.919 16.2124 127.017 16.2124C132.987 16.2124 136.377 19.9317 136.377 26.1141V43.1588H128.99V27.592C128.99 24.1436 127.32 22.1731 124.006 22.1731C120.692 22.1731 118.593 24.5377 118.593 27.986V43.1588H111.206Z" fill="white"/>
<path d="M101.002 13.3553C98.7759 13.3553 97.0557 11.6557 97.0557 9.61135C97.0557 7.56697 98.7759 5.86743 101.002 5.86743C103.228 5.86743 104.948 7.56697 104.948 9.61135C104.948 11.6557 103.228 13.3553 101.002 13.3553ZM97.3086 43.1589V16.7544H104.695V43.1589H97.3086Z" fill="white"/>
<path d="M62.3867 43.1588V7.61621H70.0264V23.8727H70.2035L83.5856 7.61621H92.0853L79.0068 23.3062L93.0213 43.1588H83.8891L73.4415 28.1585L70.0264 32.2719V43.1588H62.3867Z" fill="white"/>
</g>
<defs>
<clipPath id="clip0_94_2">
<rect width="284" height="50" fill="white"/>
</clipPath>
</defs>
</svg>
