<svg width="423" height="105" viewBox="0 0 423 105" fill="none" xmlns="http://www.w3.org/2000/svg">
<path d="M102 51.145C102 61.1791 99.0249 70.988 93.4503 79.3311C87.8756 87.6742 79.9521 94.1768 70.6817 98.0167C61.4114 101.857 51.2105 102.861 41.3692 100.904C31.5278 98.9462 22.488 94.1143 15.3928 87.019C8.29753 79.9238 3.46563 70.884 1.50806 61.0426C-0.449509 51.2013 0.555185 41.0004 4.39509 31.7301C8.235 22.4597 14.7377 14.5362 23.0807 8.96153C31.4238 3.38685 41.2327 0.411377 51.2668 0.411377C57.9293 0.411377 64.5265 1.72364 70.6817 4.27324C76.837 6.82285 82.4298 10.5599 87.1409 15.2709C91.8519 19.982 95.589 25.5748 98.1386 31.7301C100.688 37.8854 102 44.4826 102 51.145ZM79.7768 22.9938C78.0018 21.2188 72.0165 24.3267 70.2415 26.1018L59.3027 37.047L59.2066 37.0149L28.6267 28.7035C27.9583 28.5616 27.2658 28.5793 26.6056 28.7552C25.9453 28.9311 25.3358 29.2603 24.8267 29.716L22.084 32.4587C21.8777 32.6361 21.7194 32.8626 21.6236 33.1173C21.5279 33.372 21.4977 33.6467 21.536 33.9161C21.5743 34.1855 21.6798 34.4409 21.8428 34.6588C22.0057 34.8767 22.2209 35.0501 22.4684 35.163L42.808 46.4093L46.3774 49.9787L36.9445 59.3987C35.9811 60.4791 35.1703 61.6866 34.5351 62.9873L27.6206 60.8918C26.9607 60.7318 26.2718 60.7345 25.6132 60.8997C24.9546 61.0649 24.346 61.3877 23.8398 61.8402L22.9939 62.6797C22.5674 63.1063 22.3278 63.6849 22.3278 64.2882C22.3278 64.8914 22.5674 65.47 22.9939 65.8966L27.9667 70.8694L28.0628 70.9591L31.8244 74.7271L31.9205 74.8232L36.8869 79.796C37.3143 80.2209 37.8926 80.4595 38.4953 80.4595C39.0981 80.4595 39.6763 80.2209 40.1038 79.796L40.9496 78.9501C41.4027 78.4442 41.7257 77.8356 41.891 77.1769C42.0562 76.5181 42.0586 75.8291 41.8981 75.1693L39.7962 68.2484C41.0968 67.6103 42.3041 66.7974 43.3848 65.8325L52.8048 56.4061L56.3741 59.9691L67.6077 80.3086C67.7206 80.5562 67.894 80.7714 68.1119 80.9343C68.3298 81.0972 68.5852 81.2027 68.8546 81.241C69.124 81.2793 69.3987 81.2492 69.6534 81.1535C69.908 81.0577 70.1345 80.8994 70.312 80.6931L73.0547 77.9504C73.5113 77.4406 73.8411 76.83 74.017 76.1685C74.193 75.507 74.2102 74.8133 74.0671 74.144L65.7621 43.5769L65.7301 43.4744L76.6689 32.5292C78.4439 30.7541 81.5519 24.7753 79.7768 22.9938Z" fill="#F7F7F7"/>
<path d="M407.751 83.1545V8.15454H422.851V83.1545H407.751Z" fill="#F7F7F7"/>
<path d="M368.634 104.055H352.334L362.734 80.2545L341.934 33.1545H358.434L370.834 64.0545L383.134 33.1545H399.734L368.634 104.055Z" fill="#F7F7F7"/>
<path d="M304.117 83.1545L282.217 33.1545H298.917L311.017 63.5545L323.217 33.1545H340.017L318.117 83.1545H304.117Z" fill="#F7F7F7"/>
<path d="M245.388 84.2544C238.922 84.2544 233.422 81.6878 228.888 76.5544C224.422 71.4211 222.188 65.2878 222.188 58.1544C222.188 51.0211 224.422 44.8878 228.888 39.7544C233.422 34.6211 238.922 32.0544 245.388 32.0544C251.122 32.0544 255.655 34.0878 258.988 38.1544V33.1544H274.088V83.1544H258.988V78.1544C255.655 82.2211 251.122 84.2544 245.388 84.2544ZM240.488 67.0544C242.622 69.3878 245.388 70.5544 248.788 70.5544C252.188 70.5544 254.922 69.3878 256.988 67.0544C259.122 64.7211 260.188 61.7544 260.188 58.1544C260.188 54.5544 259.122 51.5878 256.988 49.2544C254.922 46.9211 252.188 45.7544 248.788 45.7544C245.388 45.7544 242.622 46.9211 240.488 49.2544C238.422 51.5878 237.388 54.5544 237.388 58.1544C237.388 61.7544 238.422 64.7211 240.488 67.0544Z" fill="#F7F7F7"/>
<path d="M184.614 83.1544V33.1544H199.714V40.6544C200.514 38.3878 202.014 36.4878 204.214 34.9544C206.414 33.3544 208.881 32.5544 211.614 32.5544C213.348 32.5544 214.981 32.7544 216.514 33.1544V48.4545C214.181 47.6545 211.948 47.2544 209.814 47.2544C206.614 47.2544 204.114 48.3878 202.314 50.6544C200.581 52.8544 199.714 55.7878 199.714 59.4544V83.1544H184.614Z" fill="#F7F7F7"/>
<path d="M147.3 83.1545V27.3545H129.2V12.1545H181.6V27.3545H163.3V83.1545H147.3Z" fill="#F7F7F7"/>
</svg>
