<svg width="800" height="800" viewBox="0 0 800 800" fill="none" xmlns="http://www.w3.org/2000/svg">
<path fill-rule="evenodd" clip-rule="evenodd" d="M172.121 400C172.121 374.595 176.34 350.24 183.871 327.395L52.0574 226.738C26.3677 278.898 11.8938 337.671 11.8938 400C11.8938 462.275 26.3499 521.013 52.004 573.138L183.746 472.284C176.287 449.546 172.121 425.28 172.121 400Z" fill="#FBBC05"/>
<path fill-rule="evenodd" clip-rule="evenodd" d="M403.56 168.889C458.75 168.889 508.598 188.444 547.765 220.444L661.704 106.666C592.273 46.222 503.257 8.88867 403.56 8.88867C248.781 8.88867 115.757 97.4042 52.0574 226.738L183.871 327.395C214.243 235.2 300.819 168.889 403.56 168.889Z" fill="#EB4335"/>
<path fill-rule="evenodd" clip-rule="evenodd" d="M403.56 631.111C300.819 631.111 214.243 564.8 183.871 472.604L52.0574 573.244C115.757 702.595 248.781 791.111 403.56 791.111C499.091 791.111 590.296 757.191 658.749 693.635L533.629 596.906C498.326 619.146 453.872 631.111 403.56 631.111Z" fill="#34A853"/>
<path fill-rule="evenodd" clip-rule="evenodd" d="M777.424 400C777.424 376.889 773.863 352 768.523 328.889H403.56V480H613.636C603.132 531.52 574.541 571.129 533.629 596.906L658.749 693.635C730.656 626.898 777.424 527.484 777.424 400Z" fill="#4285F4"/>
</svg>
