<svg width="384" height="71" viewBox="0 0 384 71" fill="none" xmlns="http://www.w3.org/2000/svg">
<g clip-path="url(#clip0_229_16)">
<path d="M41.2714 16.7363C41.2714 16.6735 41.2084 16.6735 41.2084 16.6107C41.2084 16.6735 41.1455 16.6735 41.1455 16.7363C28.6853 1.98169 9.17697 8.8253 9.17697 26.8447C9.17697 44.1735 34.7896 62.5696 41.2084 63.7625C47.5644 62.6324 73.2399 44.2363 73.2399 26.8447C73.177 8.8253 53.6686 1.98169 41.2714 16.7363Z" fill="#ED5463"/>
</g>
<path d="M100.753 63.1948C97.8626 63.1948 96.0921 61.3882 96.0921 58.353V15.1743C96.0921 12.1392 97.8626 10.3325 100.753 10.3325H116.796C128.07 10.3325 134.827 16.5835 134.827 26.5562C134.827 33.3491 131.358 38.9136 125.324 41.2622L133.562 55.7153C134.357 57.0522 134.574 57.8472 134.574 58.9312C134.574 61.3882 132.55 63.1948 129.876 63.1948C127.672 63.1948 126.588 62.3999 125.143 59.8345L115.857 42.8521H105.414V58.353C105.414 61.3882 103.644 63.1948 100.753 63.1948ZM105.414 35.6978H115.929C121.855 35.6978 125.287 32.4097 125.287 26.7729C125.287 21.2808 121.638 17.8843 115.748 17.8843H105.414V35.6978ZM158.241 63.231C146.534 63.231 139.632 55.896 139.632 43.4663C139.632 31.2534 146.678 23.3765 157.735 23.3765C168.213 23.3765 175.368 30.8198 175.368 41.2261C175.368 43.8999 173.85 45.4897 171.176 45.4897H148.593V45.7788C148.593 52.1743 152.315 56.2935 158.168 56.2935C162.215 56.2935 164.853 54.8843 167.743 51.1987C168.683 50.1509 169.514 49.7534 170.779 49.7534C172.802 49.7534 174.392 51.0542 174.392 53.2222C174.392 53.9087 174.175 54.7036 173.778 55.4985C171.248 60.3765 165.539 63.231 158.241 63.231ZM148.665 39.564H166.551C166.37 33.9995 162.829 30.3501 157.771 30.3501C152.712 30.3501 149.027 34.0718 148.665 39.564ZM185.954 63.1948C183.317 63.1948 181.438 61.4966 181.438 58.4614V14.3433C181.438 11.3081 183.317 9.60986 185.954 9.60986C188.592 9.60986 190.435 11.3081 190.435 14.3433V39.9976H190.543L205.575 25.147C206.731 23.9185 207.706 23.4126 209.079 23.4126C211.32 23.4126 213.018 25.1108 213.018 27.2788C213.018 28.6157 212.62 29.4468 211.392 30.603L200.48 40.937L212.476 55.9321C213.415 57.2329 213.704 58.0278 213.704 59.1841C213.704 61.5327 211.934 63.1948 209.441 63.1948C207.67 63.1948 206.622 62.5806 205.322 60.7017L193.831 46.1401L190.435 49.3198V58.4614C190.435 61.4966 188.592 63.1948 185.954 63.1948ZM224.255 18.7876C221.473 18.7876 219.269 16.6196 219.269 13.9097C219.269 11.1636 221.473 9.03174 224.255 9.03174C227.074 9.03174 229.278 11.1636 229.278 13.9097C229.278 16.6196 227.074 18.7876 224.255 18.7876ZM224.255 63.1948C221.509 63.1948 219.775 61.3882 219.775 58.4614V28.146C219.775 25.2554 221.509 23.4126 224.255 23.4126C227.001 23.4126 228.772 25.2554 228.772 28.1821V58.4614C228.772 61.3882 227.001 63.1948 224.255 63.1948ZM240.804 63.1948C238.166 63.1948 236.324 61.4966 236.324 58.4614V27.9653C236.324 25.1831 237.95 23.4126 240.623 23.4126C243.261 23.4126 245.068 25.1831 245.068 27.9653V30.6392H245.248C247.308 26.0864 251.283 23.4487 257.172 23.4487C265.627 23.4487 270.433 28.8687 270.433 37.7212V58.4614C270.433 61.4966 268.59 63.1948 265.952 63.1948C263.315 63.1948 261.436 61.4966 261.436 58.4614V39.5278C261.436 34.1079 258.907 31.0728 253.776 31.0728C248.609 31.0728 245.321 34.7944 245.321 40.2866V58.4614C245.321 61.4966 243.442 63.1948 240.804 63.1948ZM291.968 63.0864C282.321 63.0864 276.07 55.4624 276.07 43.2856C276.07 31.1812 282.321 23.521 291.968 23.521C297.46 23.521 301.796 26.3755 303.82 30.603H304.036V14.3433C304.036 11.3081 305.879 9.60986 308.517 9.60986C311.155 9.60986 313.034 11.3081 313.034 14.3433V58.6782C313.034 61.5688 311.191 63.1948 308.589 63.1948C305.988 63.1948 304.036 61.605 304.036 58.6782V55.6792H303.856C302.013 60.0874 297.894 63.0864 291.968 63.0864ZM294.678 55.7153C300.351 55.7153 304.073 50.9097 304.073 43.3218C304.073 35.8062 300.351 30.9282 294.678 30.9282C288.897 30.9282 285.284 35.7339 285.284 43.3218C285.284 50.9458 288.861 55.7153 294.678 55.7153ZM325.355 63.1948C322.717 63.1948 320.838 61.4966 320.838 58.4614V14.3433C320.838 11.3081 322.717 9.60986 325.355 9.60986C327.993 9.60986 329.835 11.3081 329.835 14.3433V58.4614C329.835 61.4966 327.993 63.1948 325.355 63.1948ZM354.514 63.231C342.807 63.231 335.906 55.896 335.906 43.4663C335.906 31.2534 342.952 23.3765 354.008 23.3765C364.487 23.3765 371.641 30.8198 371.641 41.2261C371.641 43.8999 370.123 45.4897 367.45 45.4897H344.867V45.7788C344.867 52.1743 348.588 56.2935 354.442 56.2935C358.489 56.2935 361.126 54.8843 364.017 51.1987C364.956 50.1509 365.787 49.7534 367.052 49.7534C369.076 49.7534 370.665 51.0542 370.665 53.2222C370.665 53.9087 370.449 54.7036 370.051 55.4985C367.522 60.3765 361.813 63.231 354.514 63.231ZM344.939 39.564H362.825C362.644 33.9995 359.103 30.3501 354.044 30.3501C348.986 30.3501 345.3 34.0718 344.939 39.564Z" fill="#332E2E"/>
<defs>
<clipPath id="clip0_229_16">
<rect width="64" height="55" fill="white" transform="translate(9.17697 8.69995)"/>
</clipPath>
</defs>
</svg>
